<svg version="1.1" viewBox="0.0 0.0 619.0 358.0" fill="none" stroke="none" stroke-linecap="square" stroke-miterlimit="10" width="619" height="358" xmlns:xlink="http://www.w3.org/1999/xlink" xmlns="http://www.w3.org/2000/svg"><path fill="#ffffff" d="M0 0L619.0 0L619.0 358.0L0 358.0L0 0Z" fill-rule="nonzero"/><path stroke="#333333" stroke-width="1.0" stroke-linecap="butt" d="M85.5 320.5L484.5 320.5" fill-rule="nonzero"/><path stroke="#cccccc" stroke-width="1.0" stroke-linecap="butt" d="M85.5 255.5L484.5 255.5" fill-rule="nonzero"/><path stroke="#cccccc" stroke-width="1.0" stroke-linecap="butt" d="M85.5 190.5L484.5 190.5" fill-rule="nonzero"/><path stroke="#cccccc" stroke-width="1.0" stroke-linecap="butt" d="M85.5 125.5L484.5 125.5" fill-rule="nonzero"/><path stroke="#cccccc" stroke-width="1.0" stroke-linecap="butt" d="M85.5 60.5L484.5 60.5" fill-rule="nonzero"/><path stroke="#e6e6e6" stroke-width="1.0" stroke-linecap="butt" d="M85.5 303.5L484.5 303.5" fill-rule="nonzero"/><path stroke="#e6e6e6" stroke-width="1.0" stroke-linecap="butt" d="M85.5 287.5L484.5 287.5" fill-rule="nonzero"/><path stroke="#e6e6e6" stroke-width="1.0" stroke-linecap="butt" d="M85.5 271.5L484.5 271.5" fill-rule="nonzero"/><path stroke="#e6e6e6" stroke-width="1.0" stroke-linecap="butt" d="M85.5 239.5L484.5 239.5" fill-rule="nonzero"/><path stroke="#e6e6e6" stroke-width="1.0" stroke-linecap="butt" d="M85.5 222.5L484.5 222.5" fill-rule="nonzero"/><path stroke="#e6e6e6" stroke-width="1.0" stroke-linecap="butt" d="M85.5 206.5L484.5 206.5" fill-rule="nonzero"/><path stroke="#e6e6e6" stroke-width="1.0" stroke-linecap="butt" d="M85.5 174.5L484.5 174.5" fill-rule="nonzero"/><path stroke="#e6e6e6" stroke-width="1.0" stroke-linecap="butt" d="M85.5 158.5L484.5 158.5" fill-rule="nonzero"/><path stroke="#e6e6e6" stroke-width="1.0" stroke-linecap="butt" d="M85.5 141.5L484.5 141.5" fill-rule="nonzero"/><path stroke="#e6e6e6" stroke-width="1.0" stroke-linecap="butt" d="M85.5 109.5L484.5 109.5" fill-rule="nonzero"/><path stroke="#e6e6e6" stroke-width="1.0" stroke-linecap="butt" d="M85.5 93.5L484.5 93.5" fill-rule="nonzero"/><path stroke="#e6e6e6" stroke-width="1.0" stroke-linecap="butt" d="M85.5 77.5L484.5 77.5" fill-rule="nonzero"/><clipPath id="id_0"><path d="M85.9 60.833332L484.01556 60.833332L484.01556 320.1L85.9 320.1L85.9 60.833332Z" clip-rule="nonzero"/></clipPath><path stroke="#000000" stroke-width="2.0" stroke-linecap="butt" stroke-opacity="0.0" clip-path="url(#id_0)" d="M178.0 320.0L119.0 320.0L119.0 319.0L178.0 319.0Z" fill-rule="nonzero"/><path fill="#4285f4" clip-path="url(#id_0)" d="M178.0 320.0L119.0 320.0L119.0 319.0L178.0 319.0Z" fill-rule="nonzero"/><path stroke="#000000" stroke-width="2.0" stroke-linecap="butt" stroke-opacity="0.0" clip-path="url(#id_0)" d="M269.0 320.0L210.0 320.0L210.0 318.0L269.0 318.0Z" fill-rule="nonzero"/><path fill="#4285f4" clip-path="url(#id_0)" d="M269.0 320.0L210.0 320.0L210.0 318.0L269.0 318.0Z" fill-rule="nonzero"/><path stroke="#000000" stroke-width="2.0" stroke-linecap="butt" stroke-opacity="0.0" clip-path="url(#id_0)" d="M361.0 320.0L302.0 320.0L302.0 320.0L361.0 320.0Z" fill-rule="nonzero"/><path fill="#4285f4" clip-path="url(#id_0)" d="M361.0 320.0L302.0 320.0L302.0 320.0L361.0 320.0Z" fill-rule="nonzero"/><path stroke="#000000" stroke-width="2.0" stroke-linecap="butt" stroke-opacity="0.0" clip-path="url(#id_0)" d="M452.0 320.0L393.0 320.0L393.0 316.0L452.0 316.0Z" fill-rule="nonzero"/><path fill="#4285f4" clip-path="url(#id_0)" d="M452.0 320.0L393.0 320.0L393.0 316.0L452.0 316.0Z" fill-rule="nonzero"/><path stroke="#000000" stroke-width="2.0" stroke-linecap="butt" stroke-opacity="0.0" clip-path="url(#id_0)" d="M178.0 319.0L119.0 319.0L119.0 319.0L178.0 319.0Z" fill-rule="nonzero"/><path fill="#ea4335" clip-path="url(#id_0)" d="M178.0 319.0L119.0 319.0L119.0 319.0L178.0 319.0Z" fill-rule="nonzero"/><path stroke="#000000" stroke-width="2.0" stroke-linecap="butt" stroke-opacity="0.0" clip-path="url(#id_0)" d="M269.0 318.0L210.0 318.0L210.0 315.0L269.0 315.0Z" fill-rule="nonzero"/><path fill="#ea4335" clip-path="url(#id_0)" d="M269.0 318.0L210.0 318.0L210.0 315.0L269.0 315.0Z" fill-rule="nonzero"/><path stroke="#000000" stroke-width="2.0" stroke-linecap="butt" stroke-opacity="0.0" clip-path="url(#id_0)" d="M361.0 320.0L302.0 320.0L302.0 316.0L361.0 316.0Z" fill-rule="nonzero"/><path fill="#ea4335" clip-path="url(#id_0)" d="M361.0 320.0L302.0 320.0L302.0 316.0L361.0 316.0Z" fill-rule="nonzero"/><path stroke="#000000" stroke-width="2.0" stroke-linecap="butt" stroke-opacity="0.0" clip-path="url(#id_0)" d="M452.0 316.0L393.0 316.0L393.0 316.0L452.0 316.0Z" fill-rule="nonzero"/><path fill="#ea4335" clip-path="url(#id_0)" d="M452.0 316.0L393.0 316.0L393.0 316.0L452.0 316.0Z" fill-rule="nonzero"/><path stroke="#000000" stroke-width="2.0" stroke-linecap="butt" stroke-opacity="0.0" clip-path="url(#id_0)" d="M178.0 319.0L119.0 319.0L119.0 318.0L178.0 318.0Z" fill-rule="nonzero"/><path fill="#fbbc04" clip-path="url(#id_0)" d="M178.0 319.0L119.0 319.0L119.0 318.0L178.0 318.0Z" fill-rule="nonzero"/><path stroke="#000000" stroke-width="2.0" stroke-linecap="butt" stroke-opacity="0.0" clip-path="url(#id_0)" d="M269.0 315.0L210.0 315.0L210.0 315.0L269.0 315.0Z" fill-rule="nonzero"/><path fill="#fbbc04" clip-path="url(#id_0)" d="M269.0 315.0L210.0 315.0L210.0 315.0L269.0 315.0Z" fill-rule="nonzero"/><path stroke="#000000" stroke-width="2.0" stroke-linecap="butt" stroke-opacity="0.0" clip-path="url(#id_0)" d="M361.0 316.0L302.0 316.0L302.0 315.0L361.0 315.0Z" fill-rule="nonzero"/><path fill="#fbbc04" clip-path="url(#id_0)" d="M361.0 316.0L302.0 316.0L302.0 315.0L361.0 315.0Z" fill-rule="nonzero"/><path stroke="#000000" stroke-width="2.0" stroke-linecap="butt" stroke-opacity="0.0" clip-path="url(#id_0)" d="M452.0 316.0L393.0 316.0L393.0 316.0L452.0 316.0Z" fill-rule="nonzero"/><path fill="#fbbc04" clip-path="url(#id_0)" d="M452.0 316.0L393.0 316.0L393.0 316.0L452.0 316.0Z" fill-rule="nonzero"/><path stroke="#000000" stroke-width="2.0" stroke-linecap="butt" stroke-opacity="0.0" clip-path="url(#id_0)" d="M178.0 318.0L119.0 318.0L119.0 308.0L178.0 308.0Z" fill-rule="nonzero"/><path fill="#34a853" clip-path="url(#id_0)" d="M178.0 318.0L119.0 318.0L119.0 308.0L178.0 308.0Z" fill-rule="nonzero"/><path stroke="#000000" stroke-width="2.0" stroke-linecap="butt" stroke-opacity="0.0" clip-path="url(#id_0)" d="M269.0 315.0L210.0 315.0L210.0 299.0L269.0 299.0Z" fill-rule="nonzero"/><path fill="#34a853" clip-path="url(#id_0)" d="M269.0 315.0L210.0 315.0L210.0 299.0L269.0 299.0Z" fill-rule="nonzero"/><path stroke="#000000" stroke-width="2.0" stroke-linecap="butt" stroke-opacity="0.0" clip-path="url(#id_0)" d="M361.0 315.0L302.0 315.0L302.0 313.0L361.0 313.0Z" fill-rule="nonzero"/><path fill="#34a853" clip-path="url(#id_0)" d="M361.0 315.0L302.0 315.0L302.0 313.0L361.0 313.0Z" fill-rule="nonzero"/><path stroke="#000000" stroke-width="2.0" stroke-linecap="butt" stroke-opacity="0.0" clip-path="url(#id_0)" d="M452.0 316.0L393.0 316.0L393.0 207.0L452.0 207.0Z" fill-rule="nonzero"/><path fill="#34a853" clip-path="url(#id_0)" d="M452.0 316.0L393.0 316.0L393.0 207.0L452.0 207.0Z" fill-rule="nonzero"/><path stroke="#000000" stroke-width="2.0" stroke-linecap="butt" stroke-opacity="0.0" clip-path="url(#id_0)" d="M178.0 308.0L119.0 308.0L119.0 305.0L178.0 305.0Z" fill-rule="nonzero"/><path fill="#ff6d01" clip-path="url(#id_0)" d="M178.0 308.0L119.0 308.0L119.0 305.0L178.0 305.0Z" fill-rule="nonzero"/><path stroke="#000000" stroke-width="2.0" stroke-linecap="butt" stroke-opacity="0.0" clip-path="url(#id_0)" d="M269.0 299.0L210.0 299.0L210.0 231.0L269.0 231.0Z" fill-rule="nonzero"/><path fill="#ff6d01" clip-path="url(#id_0)" d="M269.0 299.0L210.0 299.0L210.0 231.0L269.0 231.0Z" fill-rule="nonzero"/><path stroke="#000000" stroke-width="2.0" stroke-linecap="butt" stroke-opacity="0.0" clip-path="url(#id_0)" d="M361.0 313.0L302.0 313.0L302.0 313.0L361.0 313.0Z" fill-rule="nonzero"/><path fill="#ff6d01" clip-path="url(#id_0)" d="M361.0 313.0L302.0 313.0L302.0 313.0L361.0 313.0Z" fill-rule="nonzero"/><path stroke="#000000" stroke-width="2.0" stroke-linecap="butt" stroke-opacity="0.0" clip-path="url(#id_0)" d="M452.0 207.0L393.0 207.0L393.0 111.0L452.0 111.0Z" fill-rule="nonzero"/><path fill="#ff6d01" clip-path="url(#id_0)" d="M452.0 207.0L393.0 207.0L393.0 111.0L452.0 111.0Z" fill-rule="nonzero"/><path stroke="#000000" stroke-width="2.0" stroke-linecap="butt" stroke-opacity="0.0" clip-path="url(#id_0)" d="M178.0 305.0L119.0 305.0L119.0 305.0L178.0 305.0Z" fill-rule="nonzero"/><path fill="#46bdc6" clip-path="url(#id_0)" d="M178.0 305.0L119.0 305.0L119.0 305.0L178.0 305.0Z" fill-rule="nonzero"/><path stroke="#000000" stroke-width="2.0" stroke-linecap="butt" stroke-opacity="0.0" clip-path="url(#id_0)" d="M269.0 231.0L210.0 231.0L210.0 229.0C210.0 227.89543 210.89543 227.0 212.0 227.0L267.0 227.0C268.10458 227.0 269.0 227.89543 269.0 229.0Z" fill-rule="nonzero"/><path fill="#46bdc6" clip-path="url(#id_0)" d="M269.0 231.0L210.0 231.0L210.0 229.0C210.0 227.89543 210.89543 227.0 212.0 227.0L267.0 227.0C268.10458 227.0 269.0 227.89543 269.0 229.0Z" fill-rule="nonzero"/><path stroke="#000000" stroke-width="2.0" stroke-linecap="butt" stroke-opacity="0.0" clip-path="url(#id_0)" d="M361.0 313.0L302.0 313.0L302.0 313.0L361.0 313.0Z" fill-rule="nonzero"/><path fill="#46bdc6" clip-path="url(#id_0)" d="M361.0 313.0L302.0 313.0L302.0 313.0L361.0 313.0Z" fill-rule="nonzero"/><path stroke="#000000" stroke-width="2.0" stroke-linecap="butt" stroke-opacity="0.0" clip-path="url(#id_0)" d="M452.0 111.0L393.0 111.0L393.0 110.5C393.0 110.223854 393.22385 110.0 393.5 110.0L451.5 110.0C451.77615 110.0 452.0 110.223854 452.0 110.5Z" fill-rule="nonzero"/><path fill="#46bdc6" clip-path="url(#id_0)" d="M452.0 111.0L393.0 111.0L393.0 110.5C393.0 110.223854 393.22385 110.0 393.5 110.0L451.5 110.0C451.77615 110.0 452.0 110.223854 452.0 110.5Z" fill-rule="nonzero"/><path fill="#000000" d="M51.228127 319.36563L53.071877 319.36563L53.071877 320.225L51.4 320.225Q51.509377 320.49063 51.509377 320.74063Q51.509377 321.25626 51.259377 321.81876Q51.025 322.38126 50.478127 322.975Q50.93125 322.85 51.321877 322.85Q51.80625 322.85 52.415627 322.99063Q53.415627 323.24063 53.775 323.24063Q54.2125 323.24063 54.9 322.9125L55.24375 323.88126Q54.696877 324.1 54.4 324.1625Q54.103127 324.24063 53.821877 324.24063Q53.571877 324.24063 53.321877 324.19376Q53.165627 324.17813 52.55625 323.99063Q51.9625 323.80313 51.790627 323.77188Q51.509377 323.725 51.228127 323.725Q50.80625 323.725 50.321877 323.86563Q49.853127 324.00626 49.4625 324.27188L49.05625 323.25626Q49.61875 322.94376 50.009377 322.36563Q50.4 321.7875 50.4 320.95938Q50.4 320.6 50.30625 320.225L49.165627 320.225L49.165627 319.36563L50.05625 319.36563Q49.86875 318.70938 49.80625 318.4125Q49.759377 318.1 49.759377 317.81876Q49.759377 316.6 50.665627 315.9125Q51.384377 315.36563 52.415627 315.36563Q53.478127 315.36563 54.165627 315.94376Q54.853127 316.52188 55.025 317.58438L53.9625 317.74063Q53.884377 317.0375 53.446877 316.63126Q53.009377 316.225 52.4 316.225Q51.74375 316.225 51.30625 316.64688Q50.884377 317.06876 50.884377 317.6625Q50.884377 318.30313 51.228127 319.36563ZM56.4 319.86563Q56.4 318.33438 56.7125 317.4125Q57.025 316.475 57.634377 315.975Q58.259377 315.475 59.196877 315.475Q59.884377 315.475 60.4 315.75626Q60.93125 316.0375 61.275 316.56876Q61.61875 317.08438 61.80625 317.83438Q61.99375 318.58438 61.99375 319.86563Q61.99375 321.38126 61.68125 322.30313Q61.384377 323.225 60.759377 323.74063Q60.15 324.24063 59.196877 324.24063Q57.9625 324.24063 57.24375 323.35Q56.4 322.2875 56.4 319.86563ZM57.478127 319.86563Q57.478127 321.975 57.978127 322.67813Q58.478127 323.38126 59.196877 323.38126Q59.93125 323.38126 60.415627 322.67813Q60.915627 321.975 60.915627 319.86563Q60.915627 317.74063 60.415627 317.05313Q59.93125 316.35 59.18125 316.35Q58.4625 316.35 58.025 316.95938Q57.478127 317.74063 57.478127 319.86563ZM63.99375 324.1L63.99375 322.89688L65.19688 322.89688L65.19688 324.1L63.99375 324.1ZM66.4 319.86563Q66.4 318.33438 66.7125 317.4125Q67.025 316.475 67.63438 315.975Q68.25938 315.475 69.19688 315.475Q69.88438 315.475 70.4 315.75626Q70.93125 316.0375 71.275 316.56876Q71.61875 317.08438 71.80625 317.83438Q71.99375 318.58438 71.99375 319.86563Q71.99375 321.38126 71.68125 322.30313Q71.38438 323.225 70.75938 323.74063Q70.15 324.24063 69.19688 324.24063Q67.9625 324.24063 67.24375 323.35Q66.4 322.2875 66.4 319.86563ZM67.47813 319.86563Q67.47813 321.975 67.97813 322.67813Q68.47813 323.38126 69.19688 323.38126Q69.93125 323.38126 70.41563 322.67813Q70.91563 321.975 70.91563 319.86563Q70.91563 317.74063 70.41563 317.05313Q69.93125 316.35 69.18125 316.35Q68.4625 316.35 68.025 316.95938Q67.47813 317.74063 67.47813 319.86563ZM73.4 319.86563Q73.4 318.33438 73.7125 317.4125Q74.025 316.475 74.63438 315.975Q75.25938 315.475 76.19688 315.475Q76.88438 315.475 77.4 315.75626Q77.93125 316.0375 78.275 316.56876Q78.61875 317.08438 78.80625 317.83438Q78.99375 318.58438 78.99375 319.86563Q78.99375 321.38126 78.68125 322.30313Q78.38438 323.225 77.75938 323.74063Q77.15 324.24063 76.19688 324.24063Q74.9625 324.24063 74.24375 323.35Q73.4 322.2875 73.4 319.86563ZM74.47813 319.86563Q74.47813 321.975 74.97813 322.67813Q75.47813 323.38126 76.19688 323.38126Q76.93125 323.38126 77.41563 322.67813Q77.91563 321.975 77.91563 319.86563Q77.91563 317.74063 77.41563 317.05313Q76.93125 316.35 76.18125 316.35Q75.4625 316.35 75.025 316.95938Q74.47813 317.74063 74.47813 319.86563Z" fill-rule="nonzero"/><path fill="#000000" d="M27.228125 254.54895L29.071875 254.54895L29.071875 255.40833L27.4 255.40833Q27.509375 255.67395 27.509375 255.92395Q27.509375 256.43958 27.259375 257.00208Q27.025 257.56458 26.478125 258.15833Q26.93125 258.03333 27.321875 258.03333Q27.80625 258.03333 28.415625 258.17395Q29.415625 258.42395 29.775 258.42395Q30.2125 258.42395 30.9 258.09583L31.24375 259.06458Q30.696875 259.28333 30.4 259.34583Q30.103125 259.42395 29.821875 259.42395Q29.571875 259.42395 29.321875 259.37708Q29.165625 259.36145 28.55625 259.17395Q27.9625 258.98645 27.790625 258.9552Q27.509375 258.90833 27.228125 258.90833Q26.80625 258.90833 26.321875 259.04895Q25.853125 259.18958 25.4625 259.4552L25.05625 258.43958Q25.61875 258.12708 26.009375 257.54895Q26.4 256.97083 26.4 256.1427Q26.4 255.78333 26.30625 255.40833L25.165625 255.40833L25.165625 254.54895L26.05625 254.54895Q25.86875 253.8927 25.80625 253.59583Q25.759375 253.28333 25.759375 253.00208Q25.759375 251.78333 26.665625 251.09583Q27.384375 250.54895 28.415625 250.54895Q29.478125 250.54895 30.165625 251.12708Q30.853125 251.7052 31.025 252.7677L29.9625 252.92395Q29.884375 252.22083 29.446875 251.81458Q29.009375 251.40833 28.4 251.40833Q27.74375 251.40833 27.30625 251.8302Q26.884375 252.25208 26.884375 252.84583Q26.884375 253.48645 27.228125 254.54895ZM37.946877 258.2677L37.946877 259.28333L32.259377 259.28333Q32.259377 258.90833 32.384377 258.54895Q32.603127 257.97083 33.071877 257.40833Q33.55625 256.84583 34.4625 256.11145Q35.86875 254.9552 36.353127 254.28333Q36.853127 253.61145 36.853127 253.0177Q36.853127 252.3927 36.4 251.97083Q35.946877 251.53333 35.228127 251.53333Q34.4625 251.53333 34.009377 251.98645Q33.55625 252.43958 33.540627 253.25208L32.4625 253.1427Q32.571877 251.92395 33.290627 251.29895Q34.025 250.65833 35.259377 250.65833Q36.49375 250.65833 37.2125 251.34583Q37.93125 252.03333 37.93125 253.04895Q37.93125 253.56458 37.7125 254.06458Q37.509377 254.54895 37.009377 255.11145Q36.525 255.65833 35.4 256.61145Q34.446877 257.40833 34.165627 257.7052Q33.9 257.98645 33.728127 258.2677L37.946877 258.2677ZM39.9625 259.28333L39.9625 258.0802L41.165627 258.0802L41.165627 259.28333Q41.165627 259.93958 40.93125 260.34583Q40.696877 260.7677 40.196877 260.98645L39.9 260.53333Q40.228127 260.3927 40.384377 260.09583Q40.540627 259.81458 40.571877 259.28333L39.9625 259.28333ZM42.4 257.03333L43.509377 256.93958Q43.634377 257.75208 44.071877 258.15833Q44.525 258.56458 45.165627 258.56458Q45.915627 258.56458 46.446877 257.98645Q46.978127 257.40833 46.978127 256.47083Q46.978127 255.56458 46.4625 255.04895Q45.9625 254.5177 45.134377 254.5177Q44.634377 254.5177 44.2125 254.75208Q43.80625 254.98645 43.571877 255.34583L42.5875 255.22083L43.415627 250.81458L47.696877 250.81458L47.696877 251.81458L44.259377 251.81458L43.80625 254.12708Q44.571877 253.5802 45.415627 253.5802Q46.540627 253.5802 47.30625 254.36145Q48.0875 255.1427 48.0875 256.37708Q48.0875 257.53333 47.415627 258.3927Q46.5875 259.42395 45.165627 259.42395Q43.99375 259.42395 43.24375 258.7677Q42.509377 258.11145 42.4 257.03333ZM49.4 255.04895Q49.4 253.5177 49.7125 252.59583Q50.025 251.65833 50.634377 251.15833Q51.259377 250.65833 52.196877 250.65833Q52.884377 250.65833 53.4 250.93958Q53.93125 251.22083 54.275 251.75208Q54.61875 252.2677 54.80625 253.0177Q54.99375 253.7677 54.99375 255.04895Q54.99375 256.56458 54.68125 257.48645Q54.384377 258.40833 53.759377 258.92395Q53.15 259.42395 52.196877 259.42395Q50.9625 259.42395 50.24375 258.53333Q49.4 257.47083 49.4 255.04895ZM50.478127 255.04895Q50.478127 257.15833 50.978127 257.86145Q51.478127 258.56458 52.196877 258.56458Q52.93125 258.56458 53.415627 257.86145Q53.915627 257.15833 53.915627 255.04895Q53.915627 252.92395 53.415627 252.23645Q52.93125 251.53333 52.18125 251.53333Q51.4625 251.53333 51.025 252.1427Q50.478127 252.92395 50.478127 255.04895ZM56.4 255.04895Q56.4 253.5177 56.7125 252.59583Q57.025 251.65833 57.634377 251.15833Q58.259377 250.65833 59.196877 250.65833Q59.884377 250.65833 60.4 250.93958Q60.93125 251.22083 61.275 251.75208Q61.61875 252.2677 61.80625 253.0177Q61.99375 253.7677 61.99375 255.04895Q61.99375 256.56458 61.68125 257.48645Q61.384377 258.40833 60.759377 258.92395Q60.15 259.42395 59.196877 259.42395Q57.9625 259.42395 57.24375 258.53333Q56.4 257.47083 56.4 255.04895ZM57.478127 255.04895Q57.478127 257.15833 57.978127 257.86145Q58.478127 258.56458 59.196877 258.56458Q59.93125 258.56458 60.415627 257.86145Q60.915627 257.15833 60.915627 255.04895Q60.915627 252.92395 60.415627 252.23645Q59.93125 251.53333 59.18125 251.53333Q58.4625 251.53333 58.025 252.1427Q57.478127 252.92395 57.478127 255.04895ZM63.99375 259.28333L63.99375 258.0802L65.19688 258.0802L65.19688 259.28333L63.99375 259.28333ZM66.4 255.04895Q66.4 253.5177 66.7125 252.59583Q67.025 251.65833 67.63438 251.15833Q68.25938 250.65833 69.19688 250.65833Q69.88438 250.65833 70.4 250.93958Q70.93125 251.22083 71.275 251.75208Q71.61875 252.2677 71.80625 253.0177Q71.99375 253.7677 71.99375 255.04895Q71.99375 256.56458 71.68125 257.48645Q71.38438 258.40833 70.75938 258.92395Q70.15 259.42395 69.19688 259.42395Q67.9625 259.42395 67.24375 258.53333Q66.4 257.47083 66.4 255.04895ZM67.47813 255.04895Q67.47813 257.15833 67.97813 257.86145Q68.47813 258.56458 69.19688 258.56458Q69.93125 258.56458 70.41563 257.86145Q70.91563 257.15833 70.91563 255.04895Q70.91563 252.92395 70.41563 252.23645Q69.93125 251.53333 69.18125 251.53333Q68.4625 251.53333 68.025 252.1427Q67.47813 252.92395 67.47813 255.04895ZM73.4 255.04895Q73.4 253.5177 73.7125 252.59583Q74.025 251.65833 74.63438 251.15833Q75.25938 250.65833 76.19688 250.65833Q76.88438 250.65833 77.4 250.93958Q77.93125 251.22083 78.275 251.75208Q78.61875 252.2677 78.80625 253.0177Q78.99375 253.7677 78.99375 255.04895Q78.99375 256.56458 78.68125 257.48645Q78.38438 258.40833 77.75938 258.92395Q77.15 259.42395 76.19688 259.42395Q74.9625 259.42395 74.24375 258.53333Q73.4 257.47083 73.4 255.04895ZM74.47813 255.04895Q74.47813 257.15833 74.97813 257.86145Q75.47813 258.56458 76.19688 258.56458Q76.93125 258.56458 77.41563 257.86145Q77.91563 257.15833 77.91563 255.04895Q77.91563 252.92395 77.41563 252.23645Q76.93125 251.53333 76.18125 251.53333Q75.4625 251.53333 75.025 252.1427Q74.47813 252.92395 74.47813 255.04895Z" fill-rule="nonzero"/><path fill="#000000" d="M27.228125 189.73228L29.071875 189.73228L29.071875 190.59166L27.4 190.59166Q27.509375 190.85728 27.509375 191.10728Q27.509375 191.62291 27.259375 192.18541Q27.025 192.74791 26.478125 193.34166Q26.93125 193.21666 27.321875 193.21666Q27.80625 193.21666 28.415625 193.35728Q29.415625 193.60728 29.775 193.60728Q30.2125 193.60728 30.9 193.27916L31.24375 194.24791Q30.696875 194.46666 30.4 194.52916Q30.103125 194.60728 29.821875 194.60728Q29.571875 194.60728 29.321875 194.56041Q29.165625 194.54478 28.55625 194.35728Q27.9625 194.16978 27.790625 194.13853Q27.509375 194.09166 27.228125 194.09166Q26.80625 194.09166 26.321875 194.23228Q25.853125 194.37291 25.4625 194.63853L25.05625 193.62291Q25.61875 193.31041 26.009375 192.73228Q26.4 192.15416 26.4 191.32603Q26.4 190.96666 26.30625 190.59166L25.165625 190.59166L25.165625 189.73228L26.05625 189.73228Q25.86875 189.07603 25.80625 188.77916Q25.759375 188.46666 25.759375 188.18541Q25.759375 186.96666 26.665625 186.27916Q27.384375 185.73228 28.415625 185.73228Q29.478125 185.73228 30.165625 186.31041Q30.853125 186.88853 31.025 187.95103L29.9625 188.10728Q29.884375 187.40416 29.446875 186.99791Q29.009375 186.59166 28.4 186.59166Q27.74375 186.59166 27.30625 187.01353Q26.884375 187.43541 26.884375 188.02916Q26.884375 188.66978 27.228125 189.73228ZM32.4 192.21666L33.509377 192.12291Q33.634377 192.93541 34.071877 193.34166Q34.525 193.74791 35.165627 193.74791Q35.915627 193.74791 36.446877 193.16978Q36.978127 192.59166 36.978127 191.65416Q36.978127 190.74791 36.4625 190.23228Q35.9625 189.70103 35.134377 189.70103Q34.634377 189.70103 34.2125 189.93541Q33.80625 190.16978 33.571877 190.52916L32.5875 190.40416L33.415627 185.99791L37.696877 185.99791L37.696877 186.99791L34.259377 186.99791L33.80625 189.31041Q34.571877 188.76353 35.415627 188.76353Q36.540627 188.76353 37.30625 189.54478Q38.0875 190.32603 38.0875 191.56041Q38.0875 192.71666 37.415627 193.57603Q36.5875 194.60728 35.165627 194.60728Q33.99375 194.60728 33.24375 193.95103Q32.509377 193.29478 32.4 192.21666ZM39.9625 194.46666L39.9625 193.26353L41.165627 193.26353L41.165627 194.46666Q41.165627 195.12291 40.93125 195.52916Q40.696877 195.95103 40.196877 196.16978L39.9 195.71666Q40.228127 195.57603 40.384377 195.27916Q40.540627 194.99791 40.571877 194.46666L39.9625 194.46666ZM42.4 190.23228Q42.4 188.70103 42.7125 187.77916Q43.025 186.84166 43.634377 186.34166Q44.259377 185.84166 45.196877 185.84166Q45.884377 185.84166 46.4 186.12291Q46.93125 186.40416 47.275 186.93541Q47.61875 187.45103 47.80625 188.20103Q47.99375 188.95103 47.99375 190.23228Q47.99375 191.74791 47.68125 192.66978Q47.384377 193.59166 46.759377 194.10728Q46.15 194.60728 45.196877 194.60728Q43.9625 194.60728 43.24375 193.71666Q42.4 192.65416 42.4 190.23228ZM43.478127 190.23228Q43.478127 192.34166 43.978127 193.04478Q44.478127 193.74791 45.196877 193.74791Q45.93125 193.74791 46.415627 193.04478Q46.915627 192.34166 46.915627 190.23228Q46.915627 188.10728 46.415627 187.41978Q45.93125 186.71666 45.18125 186.71666Q44.4625 186.71666 44.025 187.32603Q43.478127 188.10728 43.478127 190.23228ZM49.4 190.23228Q49.4 188.70103 49.7125 187.77916Q50.025 186.84166 50.634377 186.34166Q51.259377 185.84166 52.196877 185.84166Q52.884377 185.84166 53.4 186.12291Q53.93125 186.40416 54.275 186.93541Q54.61875 187.45103 54.80625 188.20103Q54.99375 188.95103 54.99375 190.23228Q54.99375 191.74791 54.68125 192.66978Q54.384377 193.59166 53.759377 194.10728Q53.15 194.60728 52.196877 194.60728Q50.9625 194.60728 50.24375 193.71666Q49.4 192.65416 49.4 190.23228ZM50.478127 190.23228Q50.478127 192.34166 50.978127 193.04478Q51.478127 193.74791 52.196877 193.74791Q52.93125 193.74791 53.415627 193.04478Q53.915627 192.34166 53.915627 190.23228Q53.915627 188.10728 53.415627 187.41978Q52.93125 186.71666 52.18125 186.71666Q51.4625 186.71666 51.025 187.32603Q50.478127 188.10728 50.478127 190.23228ZM56.4 190.23228Q56.4 188.70103 56.7125 187.77916Q57.025 186.84166 57.634377 186.34166Q58.259377 185.84166 59.196877 185.84166Q59.884377 185.84166 60.4 186.12291Q60.93125 186.40416 61.275 186.93541Q61.61875 187.45103 61.80625 188.20103Q61.99375 188.95103 61.99375 190.23228Q61.99375 191.74791 61.68125 192.66978Q61.384377 193.59166 60.759377 194.10728Q60.15 194.60728 59.196877 194.60728Q57.9625 194.60728 57.24375 193.71666Q56.4 192.65416 56.4 190.23228ZM57.478127 190.23228Q57.478127 192.34166 57.978127 193.04478Q58.478127 193.74791 59.196877 193.74791Q59.93125 193.74791 60.415627 193.04478Q60.915627 192.34166 60.915627 190.23228Q60.915627 188.10728 60.415627 187.41978Q59.93125 186.71666 59.18125 186.71666Q58.4625 186.71666 58.025 187.32603Q57.478127 188.10728 57.478127 190.23228ZM63.99375 194.46666L63.99375 193.26353L65.19688 193.26353L65.19688 194.46666L63.99375 194.46666ZM66.4 190.23228Q66.4 188.70103 66.7125 187.77916Q67.025 186.84166 67.63438 186.34166Q68.25938 185.84166 69.19688 185.84166Q69.88438 185.84166 70.4 186.12291Q70.93125 186.40416 71.275 186.93541Q71.61875 187.45103 71.80625 188.20103Q71.99375 188.95103 71.99375 190.23228Q71.99375 191.74791 71.68125 192.66978Q71.38438 193.59166 70.75938 194.10728Q70.15 194.60728 69.19688 194.60728Q67.9625 194.60728 67.24375 193.71666Q66.4 192.65416 66.4 190.23228ZM67.47813 190.23228Q67.47813 192.34166 67.97813 193.04478Q68.47813 193.74791 69.19688 193.74791Q69.93125 193.74791 70.41563 193.04478Q70.91563 192.34166 70.91563 190.23228Q70.91563 188.10728 70.41563 187.41978Q69.93125 186.71666 69.18125 186.71666Q68.4625 186.71666 68.025 187.32603Q67.47813 188.10728 67.47813 190.23228ZM73.4 190.23228Q73.4 188.70103 73.7125 187.77916Q74.025 186.84166 74.63438 186.34166Q75.25938 185.84166 76.19688 185.84166Q76.88438 185.84166 77.4 186.12291Q77.93125 186.40416 78.275 186.93541Q78.61875 187.45103 78.80625 188.20103Q78.99375 188.95103 78.99375 190.23228Q78.99375 191.74791 78.68125 192.66978Q78.38438 193.59166 77.75938 194.10728Q77.15 194.60728 76.19688 194.60728Q74.9625 194.60728 74.24375 193.71666Q73.4 192.65416 73.4 190.23228ZM74.47813 190.23228Q74.47813 192.34166 74.97813 193.04478Q75.47813 193.74791 76.19688 193.74791Q76.93125 193.74791 77.41563 193.04478Q77.91563 192.34166 77.91563 190.23228Q77.91563 188.10728 77.41563 187.41978Q76.93125 186.71666 76.18125 186.71666Q75.4625 186.71666 75.025 187.32603Q74.47813 188.10728 74.47813 190.23228Z" fill-rule="nonzero"/><path fill="#000000" d="M27.228125 124.91562L29.071875 124.91562L29.071875 125.774994L27.4 125.774994Q27.509375 126.04062 27.509375 126.29062Q27.509375 126.806244 27.259375 127.368744Q27.025 127.931244 26.478125 128.525Q26.93125 128.4 27.321875 128.4Q27.80625 128.4 28.415625 128.54062Q29.415625 128.79062 29.775 128.79062Q30.2125 128.79062 30.9 128.4625L31.24375 129.43124Q30.696875 129.65 30.4 129.7125Q30.103125 129.79062 29.821875 129.79062Q29.571875 129.79062 29.321875 129.74374Q29.165625 129.72812 28.55625 129.54062Q27.9625 129.35312 27.790625 129.32187Q27.509375 129.275 27.228125 129.275Q26.80625 129.275 26.321875 129.41562Q25.853125 129.55624 25.4625 129.82187L25.05625 128.80624Q25.61875 128.49374 26.009375 127.91562Q26.4 127.337494 26.4 126.50937Q26.4 126.149994 26.30625 125.774994L25.165625 125.774994L25.165625 124.91562L26.05625 124.91562Q25.86875 124.25937 25.80625 123.962494Q25.759375 123.649994 25.759375 123.368744Q25.759375 122.149994 26.665625 121.462494Q27.384375 120.91562 28.415625 120.91562Q29.478125 120.91562 30.165625 121.493744Q30.853125 122.07187 31.025 123.13437L29.9625 123.29062Q29.884375 122.587494 29.446875 122.181244Q29.009375 121.774994 28.4 121.774994Q27.74375 121.774994 27.30625 122.19687Q26.884375 122.618744 26.884375 123.212494Q26.884375 123.85312 27.228125 124.91562ZM32.4625 122.181244L32.4625 121.16562L38.025 121.16562L38.025 121.993744Q37.2125 122.868744 36.4 124.32187Q35.603127 125.75937 35.165627 127.29062Q34.8375 128.36874 34.759377 129.65L33.665627 129.65Q33.68125 128.63437 34.05625 127.19687Q34.446877 125.75937 35.15 124.431244Q35.86875 123.10312 36.68125 122.181244L32.4625 122.181244ZM39.9625 129.65L39.9625 128.44687L41.165627 128.44687L41.165627 129.65Q41.165627 130.30624 40.93125 130.7125Q40.696877 131.13437 40.196877 131.35312L39.9 130.9Q40.228127 130.75937 40.384377 130.4625Q40.540627 130.18124 40.571877 129.65L39.9625 129.65ZM42.4 127.399994L43.509377 127.306244Q43.634377 128.11874 44.071877 128.525Q44.525 128.93124 45.165627 128.93124Q45.915627 128.93124 46.446877 128.35312Q46.978127 127.774994 46.978127 126.837494Q46.978127 125.931244 46.4625 125.41562Q45.9625 124.88437 45.134377 124.88437Q44.634377 124.88437 44.2125 125.118744Q43.80625 125.35312 43.571877 125.712494L42.5875 125.587494L43.415627 121.181244L47.696877 121.181244L47.696877 122.181244L44.259377 122.181244L43.80625 124.493744Q44.571877 123.94687 45.415627 123.94687Q46.540627 123.94687 47.30625 124.72812Q48.0875 125.50937 48.0875 126.743744Q48.0875 127.899994 47.415627 128.75937Q46.5875 129.79062 45.165627 129.79062Q43.99375 129.79062 43.24375 129.13437Q42.509377 128.47812 42.4 127.399994ZM49.4 125.41562Q49.4 123.88437 49.7125 122.962494Q50.025 122.024994 50.634377 121.524994Q51.259377 121.024994 52.196877 121.024994Q52.884377 121.024994 53.4 121.306244Q53.93125 121.587494 54.275 122.118744Q54.61875 122.63437 54.80625 123.38437Q54.99375 124.13437 54.99375 125.41562Q54.99375 126.931244 54.68125 127.85312Q54.384377 128.775 53.759377 129.29062Q53.15 129.79062 52.196877 129.79062Q50.9625 129.79062 50.24375 128.9Q49.4 127.837494 49.4 125.41562ZM50.478127 125.41562Q50.478127 127.524994 50.978127 128.22812Q51.478127 128.93124 52.196877 128.93124Q52.93125 128.93124 53.415627 128.22812Q53.915627 127.524994 53.915627 125.41562Q53.915627 123.29062 53.415627 122.60312Q52.93125 121.899994 52.18125 121.899994Q51.4625 121.899994 51.025 122.50937Q50.478127 123.29062 50.478127 125.41562ZM56.4 125.41562Q56.4 123.88437 56.7125 122.962494Q57.025 122.024994 57.634377 121.524994Q58.259377 121.024994 59.196877 121.024994Q59.884377 121.024994 60.4 121.306244Q60.93125 121.587494 61.275 122.118744Q61.61875 122.63437 61.80625 123.38437Q61.99375 124.13437 61.99375 125.41562Q61.99375 126.931244 61.68125 127.85312Q61.384377 128.775 60.759377 129.29062Q60.15 129.79062 59.196877 129.79062Q57.9625 129.79062 57.24375 128.9Q56.4 127.837494 56.4 125.41562ZM57.478127 125.41562Q57.478127 127.524994 57.978127 128.22812Q58.478127 128.93124 59.196877 128.93124Q59.93125 128.93124 60.415627 128.22812Q60.915627 127.524994 60.915627 125.41562Q60.915627 123.29062 60.415627 122.60312Q59.93125 121.899994 59.18125 121.899994Q58.4625 121.899994 58.025 122.50937Q57.478127 123.29062 57.478127 125.41562ZM63.99375 129.65L63.99375 128.44687L65.19688 128.44687L65.19688 129.65L63.99375 129.65ZM66.4 125.41562Q66.4 123.88437 66.7125 122.962494Q67.025 122.024994 67.63438 121.524994Q68.25938 121.024994 69.19688 121.024994Q69.88438 121.024994 70.4 121.306244Q70.93125 121.587494 71.275 122.118744Q71.61875 122.63437 71.80625 123.38437Q71.99375 124.13437 71.99375 125.41562Q71.99375 126.931244 71.68125 127.85312Q71.38438 128.775 70.75938 129.29062Q70.15 129.79062 69.19688 129.79062Q67.9625 129.79062 67.24375 128.9Q66.4 127.837494 66.4 125.41562ZM67.47813 125.41562Q67.47813 127.524994 67.97813 128.22812Q68.47813 128.93124 69.19688 128.93124Q69.93125 128.93124 70.41563 128.22812Q70.91563 127.524994 70.91563 125.41562Q70.91563 123.29062 70.41563 122.60312Q69.93125 121.899994 69.18125 121.899994Q68.4625 121.899994 68.025 122.50937Q67.47813 123.29062 67.47813 125.41562ZM73.4 125.41562Q73.4 123.88437 73.7125 122.962494Q74.025 122.024994 74.63438 121.524994Q75.25938 121.024994 76.19688 121.024994Q76.88438 121.024994 77.4 121.306244Q77.93125 121.587494 78.275 122.118744Q78.61875 122.63437 78.80625 123.38437Q78.99375 124.13437 78.99375 125.41562Q78.99375 126.931244 78.68125 127.85312Q78.38438 128.775 77.75938 129.29062Q77.15 129.79062 76.19688 129.79062Q74.9625 129.79062 74.24375 128.9Q73.4 127.837494 73.4 125.41562ZM74.47813 125.41562Q74.47813 127.524994 74.97813 128.22812Q75.47813 128.93124 76.19688 128.93124Q76.93125 128.93124 77.41563 128.22812Q77.91563 127.524994 77.91563 125.41562Q77.91563 123.29062 77.41563 122.60312Q76.93125 121.899994 76.18125 121.899994Q75.4625 121.899994 75.025 122.50937Q74.47813 123.29062 74.47813 125.41562Z" fill-rule="nonzero"/><path fill="#000000" d="M20.228125 60.09896L22.071875 60.09896L22.071875 60.958336L20.4 60.958336Q20.509375 61.22396 20.509375 61.47396Q20.509375 61.989586 20.259375 62.552086Q20.025 63.114586 19.478125 63.708336Q19.93125 63.583336 20.321875 63.583336Q20.80625 63.583336 21.415625 63.72396Q22.415625 63.97396 22.775 63.97396Q23.2125 63.97396 23.9 63.645836L24.24375 64.614586Q23.696875 64.833336 23.4 64.895836Q23.103125 64.97396 22.821875 64.97396Q22.571875 64.97396 22.321875 64.927086Q22.165625 64.91146 21.55625 64.72396Q20.9625 64.53646 20.790625 64.50521Q20.509375 64.458336 20.228125 64.458336Q19.80625 64.458336 19.321875 64.59896Q18.853125 64.739586 18.4625 65.00521L18.05625 63.989586Q18.61875 63.677086 19.009375 63.09896Q19.4 62.520836 19.4 61.69271Q19.4 61.333336 19.30625 60.958336L18.165625 60.958336L18.165625 60.09896L19.05625 60.09896Q18.86875 59.44271 18.80625 59.145836Q18.759375 58.833336 18.759375 58.552086Q18.759375 57.333336 19.665625 56.645836Q20.384375 56.09896 21.415625 56.09896Q22.478125 56.09896 23.165625 56.677086Q23.853125 57.25521 24.025 58.31771L22.9625 58.47396Q22.884375 57.770836 22.446875 57.364586Q22.009375 56.958336 21.4 56.958336Q20.74375 56.958336 20.30625 57.38021Q19.884375 57.802086 19.884375 58.395836Q19.884375 59.03646 20.228125 60.09896ZM29.36875 64.833336L28.321875 64.833336L28.321875 58.114586Q27.93125 58.47396 27.30625 58.84896Q26.696875 59.208336 26.2125 59.38021L26.2125 58.364586Q27.0875 57.94271 27.74375 57.364586Q28.415625 56.770836 28.696875 56.208336L29.36875 56.208336L29.36875 64.833336ZM32.4 60.59896Q32.4 59.06771 32.7125 58.145836Q33.025 57.208336 33.634377 56.708336Q34.259377 56.208336 35.196877 56.208336Q35.884377 56.208336 36.4 56.489586Q36.93125 56.770836 37.275 57.302086Q37.61875 57.81771 37.80625 58.56771Q37.99375 59.31771 37.99375 60.59896Q37.99375 62.114586 37.68125 63.03646Q37.384377 63.958336 36.759377 64.47396Q36.15 64.97396 35.196877 64.97396Q33.9625 64.97396 33.24375 64.083336Q32.4 63.020836 32.4 60.59896ZM33.478127 60.59896Q33.478127 62.708336 33.978127 63.41146Q34.478127 64.114586 35.196877 64.114586Q35.93125 64.114586 36.415627 63.41146Q36.915627 62.708336 36.915627 60.59896Q36.915627 58.47396 36.415627 57.78646Q35.93125 57.083336 35.18125 57.083336Q34.4625 57.083336 34.025 57.69271Q33.478127 58.47396 33.478127 60.59896ZM39.9625 64.833336L39.9625 63.63021L41.165627 63.63021L41.165627 64.833336Q41.165627 65.489586 40.93125 65.895836Q40.696877 66.31771 40.196877 66.53646L39.9 66.083336Q40.228127 65.94271 40.384377 65.645836Q40.540627 65.364586 40.571877 64.833336L39.9625 64.833336ZM42.4 60.59896Q42.4 59.06771 42.7125 58.145836Q43.025 57.208336 43.634377 56.708336Q44.259377 56.208336 45.196877 56.208336Q45.884377 56.208336 46.4 56.489586Q46.93125 56.770836 47.275 57.302086Q47.61875 57.81771 47.80625 58.56771Q47.99375 59.31771 47.99375 60.59896Q47.99375 62.114586 47.68125 63.03646Q47.384377 63.958336 46.759377 64.47396Q46.15 64.97396 45.196877 64.97396Q43.9625 64.97396 43.24375 64.083336Q42.4 63.020836 42.4 60.59896ZM43.478127 60.59896Q43.478127 62.708336 43.978127 63.41146Q44.478127 64.114586 45.196877 64.114586Q45.93125 64.114586 46.415627 63.41146Q46.915627 62.708336 46.915627 60.59896Q46.915627 58.47396 46.415627 57.78646Q45.93125 57.083336 45.18125 57.083336Q44.4625 57.083336 44.025 57.69271Q43.478127 58.47396 43.478127 60.59896ZM49.4 60.59896Q49.4 59.06771 49.7125 58.145836Q50.025 57.208336 50.634377 56.708336Q51.259377 56.208336 52.196877 56.208336Q52.884377 56.208336 53.4 56.489586Q53.93125 56.770836 54.275 57.302086Q54.61875 57.81771 54.80625 58.56771Q54.99375 59.31771 54.99375 60.59896Q54.99375 62.114586 54.68125 63.03646Q54.384377 63.958336 53.759377 64.47396Q53.15 64.97396 52.196877 64.97396Q50.9625 64.97396 50.24375 64.083336Q49.4 63.020836 49.4 60.59896ZM50.478127 60.59896Q50.478127 62.708336 50.978127 63.41146Q51.478127 64.114586 52.196877 64.114586Q52.93125 64.114586 53.415627 63.41146Q53.915627 62.708336 53.915627 60.59896Q53.915627 58.47396 53.415627 57.78646Q52.93125 57.083336 52.18125 57.083336Q51.4625 57.083336 51.025 57.69271Q50.478127 58.47396 50.478127 60.59896ZM56.4 60.59896Q56.4 59.06771 56.7125 58.145836Q57.025 57.208336 57.634377 56.708336Q58.259377 56.208336 59.196877 56.208336Q59.884377 56.208336 60.4 56.489586Q60.93125 56.770836 61.275 57.302086Q61.61875 57.81771 61.80625 58.56771Q61.99375 59.31771 61.99375 60.59896Q61.99375 62.114586 61.68125 63.03646Q61.384377 63.958336 60.759377 64.47396Q60.15 64.97396 59.196877 64.97396Q57.9625 64.97396 57.24375 64.083336Q56.4 63.020836 56.4 60.59896ZM57.478127 60.59896Q57.478127 62.708336 57.978127 63.41146Q58.478127 64.114586 59.196877 64.114586Q59.93125 64.114586 60.415627 63.41146Q60.915627 62.708336 60.915627 60.59896Q60.915627 58.47396 60.415627 57.78646Q59.93125 57.083336 59.18125 57.083336Q58.4625 57.083336 58.025 57.69271Q57.478127 58.47396 57.478127 60.59896ZM63.99375 64.833336L63.99375 63.63021L65.19688 63.63021L65.19688 64.833336L63.99375 64.833336ZM66.4 60.59896Q66.4 59.06771 66.7125 58.145836Q67.025 57.208336 67.63438 56.708336Q68.25938 56.208336 69.19688 56.208336Q69.88438 56.208336 70.4 56.489586Q70.93125 56.770836 71.275 57.302086Q71.61875 57.81771 71.80625 58.56771Q71.99375 59.31771 71.99375 60.59896Q71.99375 62.114586 71.68125 63.03646Q71.38438 63.958336 70.75938 64.47396Q70.15 64.97396 69.19688 64.97396Q67.9625 64.97396 67.24375 64.083336Q66.4 63.020836 66.4 60.59896ZM67.47813 60.59896Q67.47813 62.708336 67.97813 63.41146Q68.47813 64.114586 69.19688 64.114586Q69.93125 64.114586 70.41563 63.41146Q70.91563 62.708336 70.91563 60.59896Q70.91563 58.47396 70.41563 57.78646Q69.93125 57.083336 69.18125 57.083336Q68.4625 57.083336 68.025 57.69271Q67.47813 58.47396 67.47813 60.59896ZM73.4 60.59896Q73.4 59.06771 73.7125 58.145836Q74.025 57.208336 74.63438 56.708336Q75.25938 56.208336 76.19688 56.208336Q76.88438 56.208336 77.4 56.489586Q77.93125 56.770836 78.275 57.302086Q78.61875 57.81771 78.80625 58.56771Q78.99375 59.31771 78.99375 60.59896Q78.99375 62.114586 78.68125 63.03646Q78.38438 63.958336 77.75938 64.47396Q77.15 64.97396 76.19688 64.97396Q74.9625 64.97396 74.24375 64.083336Q73.4 63.020836 73.4 60.59896ZM74.47813 60.59896Q74.47813 62.708336 74.97813 63.41146Q75.47813 64.114586 76.19688 64.114586Q76.93125 64.114586 77.41563 63.41146Q77.91563 62.708336 77.91563 60.59896Q77.91563 58.47396 77.41563 57.78646Q76.93125 57.083336 76.18125 57.083336Q75.4625 57.083336 75.025 57.69271Q74.47813 58.47396 74.47813 60.59896Z" fill-rule="nonzero"/><path fill="#000000" d="M139.72342 336.08438L139.72342 337.1L134.03592 337.1Q134.03592 336.725 134.16092 336.36563Q134.37967 335.7875 134.84842 335.225Q135.3328 334.6625 136.23904 333.92813Q137.6453 332.77188 138.12967 332.1Q138.62967 331.42813 138.62967 330.83438Q138.62967 330.20938 138.17654 329.7875Q137.72342 329.35 137.00467 329.35Q136.23904 329.35 135.78592 329.80313Q135.3328 330.25626 135.31717 331.06876L134.23904 330.95938Q134.34842 329.74063 135.06717 329.11563Q135.80154 328.475 137.03592 328.475Q138.2703 328.475 138.98904 329.1625Q139.7078 329.85 139.7078 330.86563Q139.7078 331.38126 139.48904 331.88126Q139.28592 332.36563 138.78592 332.92813Q138.30154 333.475 137.17654 334.42813Q136.22342 335.225 135.94217 335.52188Q135.67654 335.80313 135.50467 336.08438L139.72342 336.08438ZM141.17654 332.86563Q141.17654 331.33438 141.48904 330.4125Q141.80154 329.475 142.41092 328.975Q143.03592 328.475 143.97342 328.475Q144.66092 328.475 145.17654 328.75626Q145.7078 329.0375 146.05154 329.56876Q146.3953 330.08438 146.5828 330.83438Q146.7703 331.58438 146.7703 332.86563Q146.7703 334.38126 146.4578 335.30313Q146.16092 336.225 145.53592 336.74063Q144.92654 337.24063 143.97342 337.24063Q142.73904 337.24063 142.0203 336.35Q141.17654 335.2875 141.17654 332.86563ZM142.25467 332.86563Q142.25467 334.975 142.75467 335.67813Q143.25467 336.38126 143.97342 336.38126Q144.7078 336.38126 145.19217 335.67813Q145.69217 334.975 145.69217 332.86563Q145.69217 330.74063 145.19217 330.05313Q144.7078 329.35 143.9578 329.35Q143.23904 329.35 142.80154 329.95938Q142.25467 330.74063 142.25467 332.86563ZM153.72342 336.08438L153.72342 337.1L148.03592 337.1Q148.03592 336.725 148.16092 336.36563Q148.37967 335.7875 148.84842 335.225Q149.3328 334.6625 150.23904 333.92813Q151.6453 332.77188 152.12967 332.1Q152.62967 331.42813 152.62967 330.83438Q152.62967 330.20938 152.17654 329.7875Q151.72342 329.35 151.00467 329.35Q150.23904 329.35 149.78592 329.80313Q149.3328 330.25626 149.31717 331.06876L148.23904 330.95938Q148.34842 329.74063 149.06717 329.11563Q149.80154 328.475 151.03592 328.475Q152.2703 328.475 152.98904 329.1625Q153.7078 329.85 153.7078 330.86563Q153.7078 331.38126 153.48904 331.88126Q153.28592 332.36563 152.78592 332.92813Q152.30154 333.475 151.17654 334.42813Q150.22342 335.225 149.94217 335.52188Q149.67654 335.80313 149.50467 336.08438L153.72342 336.08438ZM155.17654 332.86563Q155.17654 331.33438 155.48904 330.4125Q155.80154 329.475 156.41092 328.975Q157.03592 328.475 157.97342 328.475Q158.66092 328.475 159.17654 328.75626Q159.7078 329.0375 160.05154 329.56876Q160.3953 330.08438 160.5828 330.83438Q160.7703 331.58438 160.7703 332.86563Q160.7703 334.38126 160.4578 335.30313Q160.16092 336.225 159.53592 336.74063Q158.92654 337.24063 157.97342 337.24063Q156.73904 337.24063 156.0203 336.35Q155.17654 335.2875 155.17654 332.86563ZM156.25467 332.86563Q156.25467 334.975 156.75467 335.67813Q157.25467 336.38126 157.97342 336.38126Q158.7078 336.38126 159.19217 335.67813Q159.69217 334.975 159.69217 332.86563Q159.69217 330.74063 159.19217 330.05313Q158.7078 329.35 157.9578 329.35Q157.23904 329.35 156.80154 329.95938Q156.25467 330.74063 156.25467 332.86563Z" fill-rule="nonzero"/><path fill="#000000" d="M231.24425 336.08438L231.24425 337.1L225.55675 337.1Q225.55675 336.725 225.68175 336.36563Q225.9005 335.7875 226.36925 335.225Q226.85362 334.6625 227.75987 333.92813Q229.16612 332.77188 229.6505 332.1Q230.1505 331.42813 230.1505 330.83438Q230.1505 330.20938 229.69737 329.7875Q229.24425 329.35 228.5255 329.35Q227.75987 329.35 227.30675 329.80313Q226.85362 330.25626 226.838 331.06876L225.75987 330.95938Q225.86925 329.74063 226.588 329.11563Q227.32237 328.475 228.55675 328.475Q229.79112 328.475 230.50987 329.1625Q231.22862 329.85 231.22862 330.86563Q231.22862 331.38126 231.00987 331.88126Q230.80675 332.36563 230.30675 332.92813Q229.82237 333.475 228.69737 334.42813Q227.74425 335.225 227.463 335.52188Q227.19737 335.80313 227.0255 336.08438L231.24425 336.08438ZM232.69737 332.86563Q232.69737 331.33438 233.00987 330.4125Q233.32237 329.475 233.93175 328.975Q234.55675 328.475 235.49425 328.475Q236.18175 328.475 236.69737 328.75626Q237.22862 329.0375 237.57237 329.56876Q237.91612 330.08438 238.10362 330.83438Q238.29112 331.58438 238.29112 332.86563Q238.29112 334.38126 237.97862 335.30313Q237.68175 336.225 237.05675 336.74063Q236.44737 337.24063 235.49425 337.24063Q234.25987 337.24063 233.54112 336.35Q232.69737 335.2875 232.69737 332.86563ZM233.7755 332.86563Q233.7755 334.975 234.2755 335.67813Q234.7755 336.38126 235.49425 336.38126Q236.22862 336.38126 236.713 335.67813Q237.213 334.975 237.213 332.86563Q237.213 330.74063 236.713 330.05313Q236.22862 329.35 235.47862 329.35Q234.75987 329.35 234.32237 329.95938Q233.7755 330.74063 233.7755 332.86563ZM245.24425 336.08438L245.24425 337.1L239.55675 337.1Q239.55675 336.725 239.68175 336.36563Q239.9005 335.7875 240.36925 335.225Q240.85362 334.6625 241.75987 333.92813Q243.16612 332.77188 243.6505 332.1Q244.1505 331.42813 244.1505 330.83438Q244.1505 330.20938 243.69737 329.7875Q243.24425 329.35 242.5255 329.35Q241.75987 329.35 241.30675 329.80313Q240.85362 330.25626 240.838 331.06876L239.75987 330.95938Q239.86925 329.74063 240.588 329.11563Q241.32237 328.475 242.55675 328.475Q243.79112 328.475 244.50987 329.1625Q245.22862 329.85 245.22862 330.86563Q245.22862 331.38126 245.00987 331.88126Q244.80675 332.36563 244.30675 332.92813Q243.82237 333.475 242.69737 334.42813Q241.74425 335.225 241.463 335.52188Q241.19737 335.80313 241.0255 336.08438L245.24425 336.08438ZM250.66612 337.1L249.61925 337.1L249.61925 330.38126Q249.22862 330.74063 248.60362 331.11563Q247.99425 331.475 247.50987 331.64688L247.50987 330.63126Q248.38487 330.20938 249.04112 329.63126Q249.713 329.0375 249.99425 328.475L250.66612 328.475L250.66612 337.1Z" fill-rule="nonzero"/><path fill="#000000" d="M322.76508 336.08438L322.76508 337.1L317.07758 337.1Q317.07758 336.725 317.20258 336.36563Q317.42133 335.7875 317.89008 335.225Q318.37445 334.6625 319.2807 333.92813Q320.68695 332.77188 321.17133 332.1Q321.67133 331.42813 321.67133 330.83438Q321.67133 330.20938 321.2182 329.7875Q320.76508 329.35 320.04633 329.35Q319.2807 329.35 318.82758 329.80313Q318.37445 330.25626 318.35883 331.06876L317.2807 330.95938Q317.39008 329.74063 318.10883 329.11563Q318.8432 328.475 320.07758 328.475Q321.31195 328.475 322.0307 329.1625Q322.74945 329.85 322.74945 330.86563Q322.74945 331.38126 322.5307 331.88126Q322.32758 332.36563 321.82758 332.92813Q321.3432 333.475 320.2182 334.42813Q319.26508 335.225 318.98383 335.52188Q318.7182 335.80313 318.54633 336.08438L322.76508 336.08438ZM324.2182 332.86563Q324.2182 331.33438 324.5307 330.4125Q324.8432 329.475 325.45258 328.975Q326.07758 328.475 327.01508 328.475Q327.70258 328.475 328.2182 328.75626Q328.74945 329.0375 329.0932 329.56876Q329.43695 330.08438 329.62445 330.83438Q329.81195 331.58438 329.81195 332.86563Q329.81195 334.38126 329.49945 335.30313Q329.20258 336.225 328.57758 336.74063Q327.9682 337.24063 327.01508 337.24063Q325.7807 337.24063 325.06195 336.35Q324.2182 335.2875 324.2182 332.86563ZM325.29633 332.86563Q325.29633 334.975 325.79633 335.67813Q326.29633 336.38126 327.01508 336.38126Q327.74945 336.38126 328.23383 335.67813Q328.73383 334.975 328.73383 332.86563Q328.73383 330.74063 328.23383 330.05313Q327.74945 329.35 326.99945 329.35Q326.2807 329.35 325.8432 329.95938Q325.29633 330.74063 325.29633 332.86563ZM336.76508 336.08438L336.76508 337.1L331.07758 337.1Q331.07758 336.725 331.20258 336.36563Q331.42133 335.7875 331.89008 335.225Q332.37445 334.6625 333.2807 333.92813Q334.68695 332.77188 335.17133 332.1Q335.67133 331.42813 335.67133 330.83438Q335.67133 330.20938 335.2182 329.7875Q334.76508 329.35 334.04633 329.35Q333.2807 329.35 332.82758 329.80313Q332.37445 330.25626 332.35883 331.06876L331.2807 330.95938Q331.39008 329.74063 332.10883 329.11563Q332.8432 328.475 334.07758 328.475Q335.31195 328.475 336.0307 329.1625Q336.74945 329.85 336.74945 330.86563Q336.74945 331.38126 336.5307 331.88126Q336.32758 332.36563 335.82758 332.92813Q335.3432 333.475 334.2182 334.42813Q333.26508 335.225 332.98383 335.52188Q332.7182 335.80313 332.54633 336.08438L336.76508 336.08438ZM343.76508 336.08438L343.76508 337.1L338.07758 337.1Q338.07758 336.725 338.20258 336.36563Q338.42133 335.7875 338.89008 335.225Q339.37445 334.6625 340.2807 333.92813Q341.68695 332.77188 342.17133 332.1Q342.67133 331.42813 342.67133 330.83438Q342.67133 330.20938 342.2182 329.7875Q341.76508 329.35 341.04633 329.35Q340.2807 329.35 339.82758 329.80313Q339.37445 330.25626 339.35883 331.06876L338.2807 330.95938Q338.39008 329.74063 339.10883 329.11563Q339.8432 328.475 341.07758 328.475Q342.31195 328.475 343.0307 329.1625Q343.74945 329.85 343.74945 330.86563Q343.74945 331.38126 343.5307 331.88126Q343.32758 332.36563 342.82758 332.92813Q342.3432 333.475 341.2182 334.42813Q340.26508 335.225 339.98383 335.52188Q339.7182 335.80313 339.54633 336.08438L343.76508 336.08438Z" fill-rule="nonzero"/><path fill="#000000" d="M414.2859 336.08438L414.2859 337.1L408.5984 337.1Q408.5984 336.725 408.7234 336.36563Q408.94214 335.7875 409.4109 335.225Q409.89526 334.6625 410.8015 333.92813Q412.20776 332.77188 412.69214 332.1Q413.19214 331.42813 413.19214 330.83438Q413.19214 330.20938 412.739 329.7875Q412.2859 329.35 411.56714 329.35Q410.8015 329.35 410.3484 329.80313Q409.89526 330.25626 409.87964 331.06876L408.8015 330.95938Q408.9109 329.74063 409.62964 329.11563Q410.364 328.475 411.5984 328.475Q412.83276 328.475 413.5515 329.1625Q414.27026 329.85 414.27026 330.86563Q414.27026 331.38126 414.0515 331.88126Q413.8484 332.36563 413.3484 332.92813Q412.864 333.475 411.739 334.42813Q410.7859 335.225 410.50464 335.52188Q410.239 335.80313 410.06714 336.08438L414.2859 336.08438ZM415.739 332.86563Q415.739 331.33438 416.0515 330.4125Q416.364 329.475 416.9734 328.975Q417.5984 328.475 418.5359 328.475Q419.2234 328.475 419.739 328.75626Q420.27026 329.0375 420.614 329.56876Q420.95776 330.08438 421.14526 330.83438Q421.33276 331.58438 421.33276 332.86563Q421.33276 334.38126 421.02026 335.30313Q420.7234 336.225 420.0984 336.74063Q419.489 337.24063 418.5359 337.24063Q417.3015 337.24063 416.58276 336.35Q415.739 335.2875 415.739 332.86563ZM416.81714 332.86563Q416.81714 334.975 417.31714 335.67813Q417.81714 336.38126 418.5359 336.38126Q419.27026 336.38126 419.75464 335.67813Q420.25464 334.975 420.25464 332.86563Q420.25464 330.74063 419.75464 330.05313Q419.27026 329.35 418.52026 329.35Q417.8015 329.35 417.364 329.95938Q416.81714 330.74063 416.81714 332.86563ZM428.2859 336.08438L428.2859 337.1L422.5984 337.1Q422.5984 336.725 422.7234 336.36563Q422.94214 335.7875 423.4109 335.225Q423.89526 334.6625 424.8015 333.92813Q426.20776 332.77188 426.69214 332.1Q427.19214 331.42813 427.19214 330.83438Q427.19214 330.20938 426.739 329.7875Q426.2859 329.35 425.56714 329.35Q424.8015 329.35 424.3484 329.80313Q423.89526 330.25626 423.87964 331.06876L422.8015 330.95938Q422.9109 329.74063 423.62964 329.11563Q424.364 328.475 425.5984 328.475Q426.83276 328.475 427.5515 329.1625Q428.27026 329.85 428.27026 330.86563Q428.27026 331.38126 428.0515 331.88126Q427.8484 332.36563 427.3484 332.92813Q426.864 333.475 425.739 334.42813Q424.7859 335.225 424.50464 335.52188Q424.239 335.80313 424.06714 336.08438L428.2859 336.08438ZM429.739 334.83438L430.8015 334.69376Q430.9734 335.58438 431.4109 335.99063Q431.8484 336.38126 432.4734 336.38126Q433.2234 336.38126 433.739 335.86563Q434.25464 335.35 434.25464 334.58438Q434.25464 333.86563 433.77026 333.39688Q433.3015 332.9125 432.56714 332.9125Q432.27026 332.9125 431.81714 333.0375L431.94214 332.1Q432.0515 332.11563 432.114 332.11563Q432.7859 332.11563 433.31714 331.77188Q433.864 331.4125 433.864 330.67813Q433.864 330.1 433.4734 329.725Q433.08276 329.33438 432.45776 329.33438Q431.8484 329.33438 431.4265 329.725Q431.02026 330.11563 430.9109 330.88126L429.8484 330.69376Q430.0359 329.64688 430.7234 329.06876Q431.4109 328.475 432.4265 328.475Q433.12964 328.475 433.7234 328.7875Q434.31714 329.08438 434.62964 329.6Q434.94214 330.11563 434.94214 330.70938Q434.94214 331.25626 434.64526 331.725Q434.3484 332.17813 433.77026 332.44376Q434.52026 332.61563 434.94214 333.17813Q435.364 333.725 435.364 334.56876Q435.364 335.69376 434.5359 336.475Q433.7234 337.25626 432.4734 337.25626Q431.3484 337.25626 430.5984 336.58438Q429.8484 335.89688 429.739 334.83438Z" fill-rule="nonzero"/><path fill="#46bdc6" d="M503.1 55.833332C503.1 55.281048 503.54773 54.833332 504.1 54.833332L514.1 54.833332C514.6523 54.833332 515.1 55.281048 515.1 55.833332L515.1 65.833336C515.1 66.38562 514.6523 66.833336 514.1 66.833336L504.1 66.833336C503.54773 66.833336 503.1 66.38562 503.1 65.833336Z" fill-rule="nonzero"/><path fill="#1a1a1a" d="M523.9906 64.833336L523.9906 56.239586L525.70935 56.239586L527.7406 62.31771Q528.02185 63.177086 528.14685 63.59896Q528.2875 63.13021 528.6 62.22396L530.6625 56.239586L532.1937 56.239586L532.1937 64.833336L531.1 64.833336L531.1 57.645836L528.6 64.833336L527.5687 64.833336L525.08435 57.520836L525.08435 64.833336L523.9906 64.833336ZM537.14685 62.833336L538.2406 62.958336Q537.9906 63.91146 537.2875 64.44271Q536.58435 64.97396 535.5062 64.97396Q534.14685 64.97396 533.33435 64.13021Q532.5375 63.28646 532.5375 61.770836Q532.5375 60.208336 533.35 59.34896Q534.1625 58.47396 535.4437 58.47396Q536.6937 58.47396 537.475 59.31771Q538.27185 60.16146 538.27185 61.708336Q538.27185 61.802086 538.27185 61.989586L533.6312 61.989586Q533.6937 63.020836 534.20935 63.56771Q534.725 64.09896 535.5062 64.09896Q536.08435 64.09896 536.4906 63.802086Q536.9125 63.489586 537.14685 62.833336ZM533.6937 61.13021L537.1625 61.13021Q537.1 60.333336 536.77185 59.94271Q536.2562 59.333336 535.45935 59.333336Q534.725 59.333336 534.225 59.81771Q533.7406 60.302086 533.6937 61.13021ZM542.1937 63.895836L542.35 64.81771Q541.89685 64.91146 541.5531 64.91146Q540.975 64.91146 540.6625 64.739586Q540.35 64.552086 540.20935 64.25521Q540.08435 63.958336 540.08435 63.00521L540.08435 59.427086L539.3187 59.427086L539.3187 58.614586L540.08435 58.614586L540.08435 57.06771L541.1312 56.44271L541.1312 58.614586L542.1937 58.614586L542.1937 59.427086L541.1312 59.427086L541.1312 63.06771Q541.1312 63.520836 541.1781 63.645836Q541.2406 63.770836 541.3656 63.84896Q541.4906 63.927086 541.725 63.927086Q541.9125 63.927086 542.1937 63.895836ZM546.95935 64.06771Q546.3656 64.56771 545.8187 64.770836Q545.2875 64.97396 544.6625 64.97396Q543.6312 64.97396 543.08435 64.47396Q542.5375 63.97396 542.5375 63.19271Q542.5375 62.739586 542.7406 62.364586Q542.9437 61.97396 543.2875 61.75521Q543.6312 61.520836 544.0531 61.41146Q544.35 61.31771 544.9906 61.239586Q546.2562 61.09896 546.8656 60.88021Q546.8656 60.66146 546.8656 60.614586Q546.8656 59.958336 546.5687 59.69271Q546.1625 59.34896 545.3656 59.34896Q544.6312 59.34896 544.27185 59.614586Q543.9125 59.864586 543.7406 60.520836L542.70935 60.38021Q542.85 59.72396 543.1781 59.31771Q543.5062 58.91146 544.1156 58.69271Q544.725 58.47396 545.52185 58.47396Q546.3187 58.47396 546.8187 58.66146Q547.3187 58.84896 547.5531 59.13021Q547.7875 59.41146 547.8812 59.84896Q547.9281 60.114586 547.9281 60.81771L547.9281 62.22396Q547.9281 63.69271 547.9906 64.083336Q548.0687 64.47396 548.27185 64.833336L547.1625 64.833336Q547.0062 64.50521 546.95935 64.06771ZM546.8656 61.708336Q546.2875 61.94271 545.14685 62.114586Q544.4906 62.208336 544.225 62.333336Q543.95935 62.44271 543.8031 62.66146Q543.6625 62.88021 543.6625 63.16146Q543.6625 63.583336 543.975 63.864586Q544.3031 64.145836 544.9125 64.145836Q545.52185 64.145836 545.9906 63.88021Q546.475 63.614586 546.6937 63.145836Q546.8656 62.78646 546.8656 62.09896L546.8656 61.708336Z" fill-rule="nonzero"/><path fill="#ff6d01" d="M503.1 79.833336C503.1 79.28105 503.54773 78.833336 504.1 78.833336L514.1 78.833336C514.6523 78.833336 515.1 79.28105 515.1 79.833336L515.1 89.833336C515.1 90.38562 514.6523 90.833336 514.1 90.833336L504.1 90.833336C503.54773 90.833336 503.1 90.38562 503.1 89.833336Z" fill-rule="nonzero"/><path fill="#1a1a1a" d="M523.975 88.833336L523.975 80.239586L525.1156 80.239586L525.1156 87.81771L529.35 87.81771L529.35 88.833336L523.975 88.833336ZM530.5062 85.72396Q530.5062 83.989586 531.45935 83.16146Q532.2562 82.47396 533.4125 82.47396Q534.6937 82.47396 535.5062 83.31771Q536.33435 84.145836 536.33435 85.63021Q536.33435 86.833336 535.975 87.520836Q535.6156 88.208336 534.9125 88.59896Q534.225 88.97396 533.4125 88.97396Q532.1156 88.97396 531.3031 88.145836Q530.5062 87.302086 530.5062 85.72396ZM531.58435 85.72396Q531.58435 86.91146 532.1 87.50521Q532.6312 88.09896 533.4125 88.09896Q534.20935 88.09896 534.725 87.50521Q535.2406 86.91146 535.2406 85.69271Q535.2406 84.53646 534.70935 83.94271Q534.1937 83.34896 533.4125 83.34896Q532.6312 83.34896 532.1 83.94271Q531.58435 84.520836 531.58435 85.72396ZM540.1937 87.895836L540.35 88.81771Q539.89685 88.91146 539.5531 88.91146Q538.975 88.91146 538.6625 88.739586Q538.35 88.552086 538.20935 88.25521Q538.08435 87.958336 538.08435 87.00521L538.08435 83.427086L537.3187 83.427086L537.3187 82.614586L538.08435 82.614586L538.08435 81.06771L539.1312 80.44271L539.1312 82.614586L540.1937 82.614586L540.1937 83.427086L539.1312 83.427086L539.1312 87.06771Q539.1312 87.520836 539.1781 87.645836Q539.2406 87.770836 539.3656 87.84896Q539.4906 87.927086 539.725 87.927086Q539.9125 87.927086 540.1937 87.895836ZM543.1937 87.895836L543.35 88.81771Q542.89685 88.91146 542.5531 88.91146Q541.975 88.91146 541.6625 88.739586Q541.35 88.552086 541.20935 88.25521Q541.08435 87.958336 541.08435 87.00521L541.08435 83.427086L540.3187 83.427086L540.3187 82.614586L541.08435 82.614586L541.08435 81.06771L542.1312 80.44271L542.1312 82.614586L543.1937 82.614586L543.1937 83.427086L542.1312 83.427086L542.1312 87.06771Q542.1312 87.520836 542.1781 87.645836Q542.2406 87.770836 542.3656 87.84896Q542.4906 87.927086 542.725 87.927086Q542.9125 87.927086 543.1937 87.895836ZM548.14685 86.833336L549.2406 86.958336Q548.9906 87.91146 548.2875 88.44271Q547.58435 88.97396 546.5062 88.97396Q545.14685 88.97396 544.33435 88.13021Q543.5375 87.28646 543.5375 85.770836Q543.5375 84.208336 544.35 83.34896Q545.1625 82.47396 546.4437 82.47396Q547.6937 82.47396 548.475 83.31771Q549.27185 84.16146 549.27185 85.708336Q549.27185 85.802086 549.27185 85.989586L544.6312 85.989586Q544.6937 87.020836 545.20935 87.56771Q545.725 88.09896 546.5062 88.09896Q547.08435 88.09896 547.4906 87.802086Q547.9125 87.489586 548.14685 86.833336ZM544.6937 85.13021L548.1625 85.13021Q548.1 84.333336 547.77185 83.94271Q547.2562 83.333336 546.45935 83.333336Q545.725 83.333336 545.225 83.81771Q544.7406 84.302086 544.6937 85.13021ZM550.8812 88.833336L550.8812 82.614586L551.83435 82.614586L551.83435 83.552086Q552.1937 82.895836 552.4906 82.69271Q552.8031 82.47396 553.1781 82.47396Q553.70935 82.47396 554.2562 82.802086L553.89685 83.78646Q553.5062 83.552086 553.1312 83.552086Q552.77185 83.552086 552.4906 83.770836Q552.225 83.97396 552.1156 84.34896Q551.9281 84.91146 551.9281 85.56771L551.9281 88.833336L550.8812 88.833336ZM554.85 91.22396L554.725 90.239586Q555.0687 90.333336 555.33435 90.333336Q555.6781 90.333336 555.8812 90.208336Q556.1 90.09896 556.2406 89.895836Q556.33435 89.72396 556.5687 89.09896Q556.58435 89.020836 556.6625 88.84896L554.2875 82.614586L555.4281 82.614586L556.725 86.208336Q556.975 86.895836 557.1781 87.66146Q557.3656 86.927086 557.6156 86.239586L558.9437 82.614586L559.9906 82.614586L557.6312 88.94271Q557.2406 89.958336 557.0375 90.34896Q556.7562 90.88021 556.3812 91.114586Q556.02185 91.364586 555.52185 91.364586Q555.225 91.364586 554.85 91.22396Z" fill-rule="nonzero"/><path fill="#34a853" d="M503.1 103.833336C503.1 103.28105 503.54773 102.833336 504.1 102.833336L514.1 102.833336C514.6523 102.833336 515.1 103.28105 515.1 103.833336L515.1 113.833336C515.1 114.38562 514.6523 114.833336 514.1 114.833336L504.1 114.833336C503.54773 114.833336 503.1 114.38562 503.1 113.833336Z" fill-rule="nonzero"/><path fill="#1a1a1a" d="M523.975 112.833336L523.975 104.239586L525.1156 104.239586L525.1156 111.81771L529.35 111.81771L529.35 112.833336L523.975 112.833336ZM530.5062 109.72396Q530.5062 107.989586 531.45935 107.16146Q532.2562 106.47396 533.4125 106.47396Q534.6937 106.47396 535.5062 107.31771Q536.33435 108.145836 536.33435 109.63021Q536.33435 110.833336 535.975 111.520836Q535.6156 112.208336 534.9125 112.59896Q534.225 112.97396 533.4125 112.97396Q532.1156 112.97396 531.3031 112.145836Q530.5062 111.302086 530.5062 109.72396ZM531.58435 109.72396Q531.58435 110.91146 532.1 111.50521Q532.6312 112.09896 533.4125 112.09896Q534.20935 112.09896 534.725 111.50521Q535.2406 110.91146 535.2406 109.69271Q535.2406 108.53646 534.70935 107.94271Q534.1937 107.34896 533.4125 107.34896Q532.6312 107.34896 532.1 107.94271Q531.58435 108.520836 531.58435 109.72396ZM537.89685 112.833336L537.89685 106.614586L538.83435 106.614586L538.83435 107.489586Q539.52185 106.47396 540.8187 106.47396Q541.3812 106.47396 541.85 106.677086Q542.33435 106.88021 542.5687 107.208336Q542.8031 107.53646 542.89685 107.97396Q542.9437 108.270836 542.9437 109.00521L542.9437 112.833336L541.89685 112.833336L541.89685 109.052086Q541.89685 108.395836 541.77185 108.083336Q541.64685 107.770836 541.33435 107.583336Q541.02185 107.38021 540.6 107.38021Q539.9281 107.38021 539.4281 107.81771Q538.9437 108.239586 538.9437 109.427086L538.9437 112.833336L537.89685 112.833336ZM544.6937 113.34896L545.725 113.50521Q545.7875 113.97396 546.08435 114.19271Q546.475 114.489586 547.14685 114.489586Q547.8812 114.489586 548.27185 114.19271Q548.6781 113.895836 548.8187 113.38021Q548.9125 113.052086 548.89685 112.020836Q548.20935 112.833336 547.1781 112.833336Q545.89685 112.833336 545.1937 111.91146Q544.4906 110.97396 544.4906 109.69271Q544.4906 108.802086 544.8031 108.052086Q545.1312 107.28646 545.7406 106.88021Q546.35 106.47396 547.1781 106.47396Q548.2875 106.47396 549.0062 107.364586L549.0062 106.614586L549.975 106.614586L549.975 111.989586Q549.975 113.44271 549.6781 114.052086Q549.3812 114.66146 548.7406 115.00521Q548.1 115.364586 547.1625 115.364586Q546.0531 115.364586 545.3656 114.864586Q544.6781 114.364586 544.6937 113.34896ZM545.5687 109.614586Q545.5687 110.833336 546.0531 111.395836Q546.5375 111.958336 547.27185 111.958336Q548.0062 111.958336 548.4906 111.395836Q548.9906 110.833336 548.9906 109.645836Q548.9906 108.50521 548.475 107.927086Q547.975 107.34896 547.2562 107.34896Q546.5531 107.34896 546.0531 107.927086Q545.5687 108.489586 545.5687 109.614586ZM551.475 110.25521L551.475 109.19271L554.725 109.19271L554.725 110.25521L551.475 110.25521ZM558.1937 111.895836L558.35 112.81771Q557.89685 112.91146 557.5531 112.91146Q556.975 112.91146 556.6625 112.739586Q556.35 112.552086 556.20935 112.25521Q556.08435 111.958336 556.08435 111.00521L556.08435 107.427086L555.3187 107.427086L555.3187 106.614586L556.08435 106.614586L556.08435 105.06771L557.1312 104.44271L557.1312 106.614586L558.1937 106.614586L558.1937 107.427086L557.1312 107.427086L557.1312 111.06771Q557.1312 111.520836 557.1781 111.645836Q557.2406 111.770836 557.3656 111.84896Q557.4906 111.927086 557.725 111.927086Q557.9125 111.927086 558.1937 111.895836ZM563.14685 110.833336L564.2406 110.958336Q563.9906 111.91146 563.2875 112.44271Q562.58435 112.97396 561.5062 112.97396Q560.14685 112.97396 559.33435 112.13021Q558.5375 111.28646 558.5375 109.770836Q558.5375 108.208336 559.35 107.34896Q560.1625 106.47396 561.4437 106.47396Q562.6937 106.47396 563.475 107.31771Q564.27185 108.16146 564.27185 109.708336Q564.27185 109.802086 564.27185 109.989586L559.6312 109.989586Q559.6937 111.020836 560.20935 111.56771Q560.725 112.09896 561.5062 112.09896Q562.08435 112.09896 562.4906 111.802086Q562.9125 111.489586 563.14685 110.833336ZM559.6937 109.13021L563.1625 109.13021Q563.1 108.333336 562.77185 107.94271Q562.2562 107.333336 561.45935 107.333336Q560.725 107.333336 560.225 107.81771Q559.7406 108.302086 559.6937 109.13021ZM565.8812 112.833336L565.8812 106.614586L566.83435 106.614586L566.83435 107.552086Q567.1937 106.895836 567.4906 106.69271Q567.8031 106.47396 568.1781 106.47396Q568.70935 106.47396 569.2562 106.802086L568.89685 107.78646Q568.5062 107.552086 568.1312 107.552086Q567.77185 107.552086 567.4906 107.770836Q567.225 107.97396 567.1156 108.34896Q566.9281 108.91146 566.9281 109.56771L566.9281 112.833336L565.8812 112.833336ZM569.89685 112.833336L569.89685 106.614586L570.83435 106.614586L570.83435 107.489586Q571.1312 107.020836 571.6156 106.75521Q572.1 106.47396 572.725 106.47396Q573.4125 106.47396 573.85 106.75521Q574.3031 107.03646 574.475 107.552086Q575.225 106.47396 576.39685 106.47396Q577.33435 106.47396 577.8187 106.989586Q578.3187 107.489586 578.3187 108.56771L578.3187 112.833336L577.27185 112.833336L577.27185 108.91146Q577.27185 108.28646 577.1625 108.00521Q577.0687 107.72396 576.8031 107.552086Q576.5375 107.38021 576.1625 107.38021Q575.5062 107.38021 575.0687 107.81771Q574.64685 108.25521 574.64685 109.22396L574.64685 112.833336L573.58435 112.833336L573.58435 108.78646Q573.58435 108.083336 573.3187 107.739586Q573.0687 107.38021 572.4906 107.38021Q572.0375 107.38021 571.6625 107.614586Q571.2875 107.84896 571.1156 108.302086Q570.9437 108.75521 570.9437 109.59896L570.9437 112.833336L569.89685 112.833336Z" fill-rule="nonzero"/><path fill="#fbbc04" d="M503.1 127.833336C503.1 127.28105 503.54773 126.833336 504.1 126.833336L514.1 126.833336C514.6523 126.833336 515.1 127.28105 515.1 127.833336L515.1 137.83333C515.1 138.38562 514.6523 138.83333 514.1 138.83333L504.1 138.83333C503.54773 138.83333 503.1 138.38562 503.1 137.83333Z" fill-rule="nonzero"/><path fill="#1a1a1a" d="M528.0531 133.45833L528.0531 132.45833L531.6781 132.4427L531.6781 135.6302Q530.85 136.30208 529.95935 136.64583Q529.0687 136.97395 528.1312 136.97395Q526.8656 136.97395 525.8187 136.4427Q524.7875 135.89583 524.2562 134.8802Q523.7406 133.84895 523.7406 132.58333Q523.7406 131.3177 524.2562 130.23958Q524.7875 129.14583 525.77185 128.6302Q526.7562 128.09895 528.0375 128.09895Q528.975 128.09895 529.725 128.39583Q530.475 128.6927 530.89685 129.23958Q531.33435 129.77083 531.5531 130.64583L530.5375 130.92708Q530.33435 130.27083 530.0375 129.89583Q529.7562 129.52083 529.225 129.30208Q528.6937 129.0677 528.0531 129.0677Q527.27185 129.0677 526.6937 129.30208Q526.1312 129.53645 525.77185 129.92708Q525.4281 130.3177 525.2406 130.78645Q524.9125 131.58333 524.9125 132.5052Q524.9125 133.66145 525.3031 134.4427Q525.70935 135.20833 526.45935 135.58333Q527.20935 135.95833 528.0687 135.95833Q528.8031 135.95833 529.5062 135.67708Q530.20935 135.3802 530.5687 135.0677L530.5687 133.45833L528.0531 133.45833ZM532.8656 136.83333L532.8656 128.23958L533.9281 128.23958L533.9281 136.83333L532.8656 136.83333ZM535.5062 133.72395Q535.5062 131.98958 536.45935 131.16145Q537.2562 130.47395 538.4125 130.47395Q539.6937 130.47395 540.5062 131.3177Q541.33435 132.14583 541.33435 133.6302Q541.33435 134.83333 540.975 135.52083Q540.6156 136.20833 539.9125 136.59895Q539.225 136.97395 538.4125 136.97395Q537.1156 136.97395 536.3031 136.14583Q535.5062 135.30208 535.5062 133.72395ZM536.58435 133.72395Q536.58435 134.91145 537.1 135.5052Q537.6312 136.09895 538.4125 136.09895Q539.20935 136.09895 539.725 135.5052Q540.2406 134.91145 540.2406 133.6927Q540.2406 132.53645 539.70935 131.9427Q539.1937 131.34895 538.4125 131.34895Q537.6312 131.34895 537.1 131.9427Q536.58435 132.52083 536.58435 133.72395ZM543.8656 136.83333L542.8812 136.83333L542.8812 128.23958L543.9437 128.23958L543.9437 131.30208Q544.6156 130.47395 545.64685 130.47395Q546.225 130.47395 546.725 130.70833Q547.2406 130.92708 547.5687 131.34895Q547.9125 131.77083 548.1 132.36458Q548.2875 132.95833 548.2875 133.6302Q548.2875 135.22395 547.4906 136.09895Q546.6937 136.97395 545.6 136.97395Q544.4906 136.97395 543.8656 136.05208L543.8656 136.83333ZM543.85 133.67708Q543.85 134.78645 544.1625 135.28645Q544.6625 136.09895 545.5062 136.09895Q546.1937 136.09895 546.6937 135.5052Q547.20935 134.91145 547.20935 133.70833Q547.20935 132.48958 546.725 131.91145Q546.2406 131.33333 545.5531 131.33333Q544.8656 131.33333 544.35 131.9427Q543.85 132.53645 543.85 133.67708ZM553.95935 136.0677Q553.3656 136.5677 552.8187 136.77083Q552.2875 136.97395 551.6625 136.97395Q550.6312 136.97395 550.08435 136.47395Q549.5375 135.97395 549.5375 135.1927Q549.5375 134.73958 549.7406 134.36458Q549.9437 133.97395 550.2875 133.7552Q550.6312 133.52083 551.0531 133.41145Q551.35 133.3177 551.9906 133.23958Q553.2562 133.09895 553.8656 132.8802Q553.8656 132.66145 553.8656 132.61458Q553.8656 131.95833 553.5687 131.6927Q553.1625 131.34895 552.3656 131.34895Q551.6312 131.34895 551.27185 131.61458Q550.9125 131.86458 550.7406 132.52083L549.70935 132.3802Q549.85 131.72395 550.1781 131.3177Q550.5062 130.91145 551.1156 130.6927Q551.725 130.47395 552.52185 130.47395Q553.3187 130.47395 553.8187 130.66145Q554.3187 130.84895 554.5531 131.1302Q554.7875 131.41145 554.8812 131.84895Q554.9281 132.11458 554.9281 132.8177L554.9281 134.22395Q554.9281 135.6927 554.9906 136.08333Q555.0687 136.47395 555.27185 136.83333L554.1625 136.83333Q554.0062 136.5052 553.95935 136.0677ZM553.8656 133.70833Q553.2875 133.9427 552.14685 134.11458Q551.4906 134.20833 551.225 134.33333Q550.95935 134.4427 550.8031 134.66145Q550.6625 134.8802 550.6625 135.16145Q550.6625 135.58333 550.975 135.86458Q551.3031 136.14583 551.9125 136.14583Q552.52185 136.14583 552.9906 135.8802Q553.475 135.61458 553.6937 135.14583Q553.8656 134.78645 553.8656 134.09895L553.8656 133.70833ZM556.8656 136.83333L556.8656 128.23958L557.9281 128.23958L557.9281 136.83333L556.8656 136.83333ZM563.02185 136.83333L563.02185 128.23958L566.27185 128.23958Q567.1156 128.23958 567.5687 128.3177Q568.20935 128.42708 568.6312 128.72395Q569.0687 129.02083 569.3187 129.55208Q569.58435 130.08333 569.58435 130.72395Q569.58435 131.8177 568.8812 132.58333Q568.1937 133.33333 566.3656 133.33333L564.1625 133.33333L564.1625 136.83333L563.02185 136.83333ZM564.1625 132.33333L566.3812 132.33333Q567.4906 132.33333 567.9437 131.92708Q568.4125 131.5052 568.4125 130.7552Q568.4125 130.22395 568.1312 129.84895Q567.8656 129.45833 567.4281 129.33333Q567.1312 129.2552 566.3656 129.2552L564.1625 129.2552L564.1625 132.33333ZM570.5062 133.72395Q570.5062 131.98958 571.45935 131.16145Q572.2562 130.47395 573.4125 130.47395Q574.6937 130.47395 575.5062 131.3177Q576.33435 132.14583 576.33435 133.6302Q576.33435 134.83333 575.975 135.52083Q575.6156 136.20833 574.9125 136.59895Q574.225 136.97395 573.4125 136.97395Q572.1156 136.97395 571.3031 136.14583Q570.5062 135.30208 570.5062 133.72395ZM571.58435 133.72395Q571.58435 134.91145 572.1 135.5052Q572.6312 136.09895 573.4125 136.09895Q574.20935 136.09895 574.725 135.5052Q575.2406 134.91145 575.2406 133.6927Q575.2406 132.53645 574.70935 131.9427Q574.1937 131.34895 573.4125 131.34895Q572.6312 131.34895 572.1 131.9427Q571.58435 132.52083 571.58435 133.72395ZM579.6156 136.83333L577.2562 130.61458L578.3656 130.61458L579.70935 134.33333Q579.9125 134.9427 580.1 135.58333Q580.2406 135.09895 580.4906 134.41145L581.8812 130.61458L582.95935 130.61458L580.6 136.83333L579.6156 136.83333ZM587.14685 134.83333L588.2406 134.95833Q587.9906 135.91145 587.2875 136.4427Q586.58435 136.97395 585.5062 136.97395Q584.14685 136.97395 583.33435 136.1302Q582.5375 135.28645 582.5375 133.77083Q582.5375 132.20833 583.35 131.34895Q584.1625 130.47395 585.4437 130.47395Q586.6937 130.47395 587.475 131.3177Q588.27185 132.16145 588.27185 133.70833Q588.27185 133.80208 588.27185 133.98958L583.6312 133.98958Q583.6937 135.02083 584.20935 135.5677Q584.725 136.09895 585.5062 136.09895Q586.08435 136.09895 586.4906 135.80208Q586.9125 135.48958 587.14685 134.83333ZM583.6937 133.1302L587.1625 133.1302Q587.1 132.33333 586.77185 131.9427Q586.2562 131.33333 585.45935 131.33333Q584.725 131.33333 584.225 131.8177Q583.7406 132.30208 583.6937 133.1302ZM589.8812 136.83333L589.8812 130.61458L590.83435 130.61458L590.83435 131.55208Q591.1937 130.89583 591.4906 130.6927Q591.8031 130.47395 592.1781 130.47395Q592.70935 130.47395 593.2562 130.80208L592.89685 131.78645Q592.5062 131.55208 592.1312 131.55208Q591.77185 131.55208 591.4906 131.77083Q591.225 131.97395 591.1156 132.34895Q590.9281 132.91145 590.9281 133.5677L590.9281 136.83333L589.8812 136.83333ZM596.1937 135.89583L596.35 136.8177Q595.89685 136.91145 595.5531 136.91145Q594.975 136.91145 594.6625 136.73958Q594.35 136.55208 594.20935 136.2552Q594.08435 135.95833 594.08435 135.0052L594.08435 131.42708L593.3187 131.42708L593.3187 130.61458L594.08435 130.61458L594.08435 129.0677L595.1312 128.4427L595.1312 130.61458L596.1937 130.61458L596.1937 131.42708L595.1312 131.42708L595.1312 135.0677Q595.1312 135.52083 595.1781 135.64583Q595.2406 135.77083 595.3656 135.84895Q595.4906 135.92708 595.725 135.92708Q595.9125 135.92708 596.1937 135.89583ZM596.85 139.22395L596.725 138.23958Q597.0687 138.33333 597.33435 138.33333Q597.6781 138.33333 597.8812 138.20833Q598.1 138.09895 598.2406 137.89583Q598.33435 137.72395 598.5687 137.09895Q598.58435 137.02083 598.6625 136.84895L596.2875 130.61458L597.4281 130.61458L598.725 134.20833Q598.975 134.89583 599.1781 135.66145Q599.3656 134.92708 599.6156 134.23958L600.9437 130.61458L601.9906 130.61458L599.6312 136.9427Q599.2406 137.95833 599.0375 138.34895Q598.7562 138.8802 598.3812 139.11458Q598.02185 139.36458 597.52185 139.36458Q597.225 139.36458 596.85 139.22395Z" fill-rule="nonzero"/><path fill="#ea4335" d="M503.1 151.83333C503.1 151.28105 503.54773 150.83333 504.1 150.83333L514.1 150.83333C514.6523 150.83333 515.1 151.28105 515.1 151.83333L515.1 161.83333C515.1 162.38562 514.6523 162.83333 514.1 162.83333L504.1 162.83333C503.54773 162.83333 503.1 162.38562 503.1 161.83333Z" fill-rule="nonzero"/><path fill="#1a1a1a" d="M524.0531 160.83333L524.0531 152.23958L530.2562 152.23958L530.2562 153.2552L525.1937 153.2552L525.1937 155.8802L529.9437 155.8802L529.9437 156.89583L525.1937 156.89583L525.1937 159.8177L530.45935 159.8177L530.45935 160.83333L524.0531 160.83333ZM531.89685 160.83333L531.89685 154.61458L532.83435 154.61458L532.83435 155.48958Q533.52185 154.47395 534.8187 154.47395Q535.3812 154.47395 535.85 154.67708Q536.33435 154.8802 536.5687 155.20833Q536.8031 155.53645 536.89685 155.97395Q536.9437 156.27083 536.9437 157.0052L536.9437 160.83333L535.89685 160.83333L535.89685 157.05208Q535.89685 156.39583 535.77185 156.08333Q535.64685 155.77083 535.33435 155.58333Q535.02185 155.3802 534.6 155.3802Q533.9281 155.3802 533.4281 155.8177Q532.9437 156.23958 532.9437 157.42708L532.9437 160.83333L531.89685 160.83333ZM540.6156 160.83333L538.2562 154.61458L539.3656 154.61458L540.70935 158.33333Q540.9125 158.9427 541.1 159.58333Q541.2406 159.09895 541.4906 158.41145L542.8812 154.61458L543.95935 154.61458L541.6 160.83333L540.6156 160.83333ZM543.89685 153.45833L543.89685 152.23958L544.95935 152.23958L544.95935 153.45833L543.89685 153.45833ZM543.89685 160.83333L543.89685 154.61458L544.95935 154.61458L544.95935 160.83333L543.89685 160.83333ZM546.8812 160.83333L546.8812 154.61458L547.83435 154.61458L547.83435 155.55208Q548.1937 154.89583 548.4906 154.6927Q548.8031 154.47395 549.1781 154.47395Q549.70935 154.47395 550.2562 154.80208L549.89685 155.78645Q549.5062 155.55208 549.1312 155.55208Q548.77185 155.55208 548.4906 155.77083Q548.225 155.97395 548.1156 156.34895Q547.9281 156.91145 547.9281 157.5677L547.9281 160.83333L546.8812 160.83333ZM550.5062 157.72395Q550.5062 155.98958 551.45935 155.16145Q552.2562 154.47395 553.4125 154.47395Q554.6937 154.47395 555.5062 155.3177Q556.33435 156.14583 556.33435 157.6302Q556.33435 158.83333 555.975 159.52083Q555.6156 160.20833 554.9125 160.59895Q554.225 160.97395 553.4125 160.97395Q552.1156 160.97395 551.3031 160.14583Q550.5062 159.30208 550.5062 157.72395ZM551.58435 157.72395Q551.58435 158.91145 552.1 159.5052Q552.6312 160.09895 553.4125 160.09895Q554.20935 160.09895 554.725 159.5052Q555.2406 158.91145 555.2406 157.6927Q555.2406 156.53645 554.70935 155.9427Q554.1937 155.34895 553.4125 155.34895Q552.6312 155.34895 552.1 155.9427Q551.58435 156.52083 551.58435 157.72395ZM557.89685 160.83333L557.89685 154.61458L558.83435 154.61458L558.83435 155.48958Q559.52185 154.47395 560.8187 154.47395Q561.3812 154.47395 561.85 154.67708Q562.33435 154.8802 562.5687 155.20833Q562.8031 155.53645 562.89685 155.97395Q562.9437 156.27083 562.9437 157.0052L562.9437 160.83333L561.89685 160.83333L561.89685 157.05208Q561.89685 156.39583 561.77185 156.08333Q561.64685 155.77083 561.33435 155.58333Q561.02185 155.3802 560.6 155.3802Q559.9281 155.3802 559.4281 155.8177Q558.9437 156.23958 558.9437 157.42708L558.9437 160.83333L557.89685 160.83333ZM564.89685 160.83333L564.89685 154.61458L565.83435 154.61458L565.83435 155.48958Q566.1312 155.02083 566.6156 154.7552Q567.1 154.47395 567.725 154.47395Q568.4125 154.47395 568.85 154.7552Q569.3031 155.03645 569.475 155.55208Q570.225 154.47395 571.39685 154.47395Q572.33435 154.47395 572.8187 154.98958Q573.3187 155.48958 573.3187 156.5677L573.3187 160.83333L572.27185 160.83333L572.27185 156.91145Q572.27185 156.28645 572.1625 156.0052Q572.0687 155.72395 571.8031 155.55208Q571.5375 155.3802 571.1625 155.3802Q570.5062 155.3802 570.0687 155.8177Q569.64685 156.2552 569.64685 157.22395L569.64685 160.83333L568.58435 160.83333L568.58435 156.78645Q568.58435 156.08333 568.3187 155.73958Q568.0687 155.3802 567.4906 155.3802Q567.0375 155.3802 566.6625 155.61458Q566.2875 155.84895 566.1156 156.30208Q565.9437 156.7552 565.9437 157.59895L565.9437 160.83333L564.89685 160.83333ZM580.14685 158.83333L581.2406 158.95833Q580.9906 159.91145 580.2875 160.4427Q579.58435 160.97395 578.5062 160.97395Q577.14685 160.97395 576.33435 160.1302Q575.5375 159.28645 575.5375 157.77083Q575.5375 156.20833 576.35 155.34895Q577.1625 154.47395 578.4437 154.47395Q579.6937 154.47395 580.475 155.3177Q581.27185 156.16145 581.27185 157.70833Q581.27185 157.80208 581.27185 157.98958L576.6312 157.98958Q576.6937 159.02083 577.20935 159.5677Q577.725 160.09895 578.5062 160.09895Q579.08435 160.09895 579.4906 159.80208Q579.9125 159.48958 580.14685 158.83333ZM576.6937 157.1302L580.1625 157.1302Q580.1 156.33333 579.77185 155.9427Q579.2562 155.33333 578.45935 155.33333Q577.725 155.33333 577.225 155.8177Q576.7406 156.30208 576.6937 157.1302ZM582.89685 160.83333L582.89685 154.61458L583.83435 154.61458L583.83435 155.48958Q584.52185 154.47395 585.8187 154.47395Q586.3812 154.47395 586.85 154.67708Q587.33435 154.8802 587.5687 155.20833Q587.8031 155.53645 587.89685 155.97395Q587.9437 156.27083 587.9437 157.0052L587.9437 160.83333L586.89685 160.83333L586.89685 157.05208Q586.89685 156.39583 586.77185 156.08333Q586.64685 155.77083 586.33435 155.58333Q586.02185 155.3802 585.6 155.3802Q584.9281 155.3802 584.4281 155.8177Q583.9437 156.23958 583.9437 157.42708L583.9437 160.83333L582.89685 160.83333ZM592.1937 159.89583L592.35 160.8177Q591.89685 160.91145 591.5531 160.91145Q590.975 160.91145 590.6625 160.73958Q590.35 160.55208 590.20935 160.2552Q590.08435 159.95833 590.08435 159.0052L590.08435 155.42708L589.3187 155.42708L589.3187 154.61458L590.08435 154.61458L590.08435 153.0677L591.1312 152.4427L591.1312 154.61458L592.1937 154.61458L592.1937 155.42708L591.1312 155.42708L591.1312 159.0677Q591.1312 159.52083 591.1781 159.64583Q591.2406 159.77083 591.3656 159.84895Q591.4906 159.92708 591.725 159.92708Q591.9125 159.92708 592.1937 159.89583Z" fill-rule="nonzero"/><path fill="#4285f4" d="M503.1 175.83333C503.1 175.28105 503.54773 174.83333 504.1 174.83333L514.1 174.83333C514.6523 174.83333 515.1 175.28105 515.1 175.83333L515.1 185.83333C515.1 186.38562 514.6523 186.83333 514.1 186.83333L504.1 186.83333C503.54773 186.83333 503.1 186.38562 503.1 185.83333Z" fill-rule="nonzero"/><path fill="#1a1a1a" d="M523.08435 184.83333L526.3812 176.23958L527.6 176.23958L531.1156 184.83333L529.83435 184.83333L528.8187 182.22395L525.2406 182.22395L524.2875 184.83333L523.08435 184.83333ZM525.5687 181.30208L528.475 181.30208L527.58435 178.92708Q527.1625 177.84895 526.975 177.14583Q526.8031 177.97395 526.5062 178.78645L525.5687 181.30208ZM530.89685 184.83333L530.89685 178.61458L531.83435 178.61458L531.83435 179.48958Q532.52185 178.47395 533.8187 178.47395Q534.3812 178.47395 534.85 178.67708Q535.33435 178.8802 535.5687 179.20833Q535.8031 179.53645 535.89685 179.97395Q535.9437 180.27083 535.9437 181.0052L535.9437 184.83333L534.89685 184.83333L534.89685 181.05208Q534.89685 180.39583 534.77185 180.08333Q534.64685 179.77083 534.33435 179.58333Q534.02185 179.3802 533.6 179.3802Q532.9281 179.3802 532.4281 179.8177Q531.9437 180.23958 531.9437 181.42708L531.9437 184.83333L530.89685 184.83333ZM537.89685 177.45833L537.89685 176.23958L538.95935 176.23958L538.95935 177.45833L537.89685 177.45833ZM537.89685 184.83333L537.89685 178.61458L538.95935 178.61458L538.95935 184.83333L537.89685 184.83333ZM540.89685 184.83333L540.89685 178.61458L541.83435 178.61458L541.83435 179.48958Q542.1312 179.02083 542.6156 178.7552Q543.1 178.47395 543.725 178.47395Q544.4125 178.47395 544.85 178.7552Q545.3031 179.03645 545.475 179.55208Q546.225 178.47395 547.39685 178.47395Q548.33435 178.47395 548.8187 178.98958Q549.3187 179.48958 549.3187 180.5677L549.3187 184.83333L548.27185 184.83333L548.27185 180.91145Q548.27185 180.28645 548.1625 180.0052Q548.0687 179.72395 547.8031 179.55208Q547.5375 179.3802 547.1625 179.3802Q546.5062 179.3802 546.0687 179.8177Q545.64685 180.2552 545.64685 181.22395L545.64685 184.83333L544.58435 184.83333L544.58435 180.78645Q544.58435 180.08333 544.3187 179.73958Q544.0687 179.3802 543.4906 179.3802Q543.0375 179.3802 542.6625 179.61458Q542.2875 179.84895 542.1156 180.30208Q541.9437 180.7552 541.9437 181.59895L541.9437 184.83333L540.89685 184.83333ZM555.95935 184.0677Q555.3656 184.5677 554.8187 184.77083Q554.2875 184.97395 553.6625 184.97395Q552.6312 184.97395 552.08435 184.47395Q551.5375 183.97395 551.5375 183.1927Q551.5375 182.73958 551.7406 182.36458Q551.9437 181.97395 552.2875 181.7552Q552.6312 181.52083 553.0531 181.41145Q553.35 181.3177 553.9906 181.23958Q555.2562 181.09895 555.8656 180.8802Q555.8656 180.66145 555.8656 180.61458Q555.8656 179.95833 555.5687 179.6927Q555.1625 179.34895 554.3656 179.34895Q553.6312 179.34895 553.27185 179.61458Q552.9125 179.86458 552.7406 180.52083L551.70935 180.3802Q551.85 179.72395 552.1781 179.3177Q552.5062 178.91145 553.1156 178.6927Q553.725 178.47395 554.52185 178.47395Q555.3187 178.47395 555.8187 178.66145Q556.3187 178.84895 556.5531 179.1302Q556.7875 179.41145 556.8812 179.84895Q556.9281 180.11458 556.9281 180.8177L556.9281 182.22395Q556.9281 183.6927 556.9906 184.08333Q557.0687 184.47395 557.27185 184.83333L556.1625 184.83333Q556.0062 184.5052 555.95935 184.0677ZM555.8656 181.70833Q555.2875 181.9427 554.14685 182.11458Q553.4906 182.20833 553.225 182.33333Q552.95935 182.4427 552.8031 182.66145Q552.6625 182.8802 552.6625 183.16145Q552.6625 183.58333 552.975 183.86458Q553.3031 184.14583 553.9125 184.14583Q554.52185 184.14583 554.9906 183.8802Q555.475 183.61458 555.6937 183.14583Q555.8656 182.78645 555.8656 182.09895L555.8656 181.70833ZM558.8656 184.83333L558.8656 176.23958L559.9281 176.23958L559.9281 184.83333L558.8656 184.83333ZM561.475 182.97395L562.5062 182.8177Q562.6 183.4427 562.9906 183.77083Q563.39685 184.09895 564.1312 184.09895Q564.85 184.09895 565.1937 183.8177Q565.5531 183.52083 565.5531 183.11458Q565.5531 182.7552 565.2406 182.55208Q565.02185 182.41145 564.1625 182.1927Q563.0062 181.89583 562.5531 181.6927Q562.1156 181.47395 561.8812 181.09895Q561.64685 180.72395 561.64685 180.2552Q561.64685 179.84895 561.83435 179.48958Q562.02185 179.1302 562.35 178.89583Q562.6 178.72395 563.02185 178.59895Q563.4437 178.47395 563.9437 178.47395Q564.6625 178.47395 565.20935 178.6927Q565.77185 178.89583 566.0375 179.2552Q566.3031 179.61458 566.39685 180.20833L565.3656 180.34895Q565.3031 179.8802 564.95935 179.61458Q564.6312 179.33333 564.0062 179.33333Q563.2875 179.33333 562.975 179.58333Q562.6625 179.8177 562.6625 180.14583Q562.6625 180.34895 562.7875 180.5052Q562.9281 180.67708 563.1937 180.78645Q563.35 180.84895 564.1312 181.05208Q565.2562 181.36458 565.6937 181.55208Q566.1312 181.73958 566.3812 182.09895Q566.6312 182.45833 566.6312 183.0052Q566.6312 183.53645 566.3187 184.0052Q566.02185 184.45833 565.4437 184.72395Q564.8656 184.97395 564.1312 184.97395Q562.9125 184.97395 562.27185 184.47395Q561.64685 183.95833 561.475 182.97395Z" fill-rule="nonzero"/><path fill="#757575" d="M19.446875 36.9L19.446875 22.587502L24.36875 22.587502Q26.040625 22.587502 26.93125 22.790627Q28.15 23.071877 29.025 23.806252Q30.15 24.775002 30.7125 26.259377Q31.275 27.743752 31.275 29.665627Q31.275 31.290627 30.9 32.55625Q30.525 33.80625 29.915625 34.634377Q29.321875 35.4625 28.61875 35.946877Q27.915625 36.415627 26.915625 36.665627Q25.915625 36.9 24.603125 36.9L19.446875 36.9ZM21.3375 35.2125L24.4 35.2125Q25.80625 35.2125 26.603125 34.946877Q27.415625 34.68125 27.9 34.196877Q28.571875 33.525 28.946875 32.4Q29.321875 31.259377 29.321875 29.634377Q29.321875 27.384377 28.5875 26.181252Q27.853125 24.978127 26.790625 24.571877Q26.040625 24.275002 24.353125 24.275002L21.3375 24.275002L21.3375 35.2125ZM32.571877 31.712502Q32.571877 28.837502 34.165627 27.446877Q35.509377 26.290627 37.43125 26.290627Q39.571877 26.290627 40.915627 27.696877Q42.275 29.103127 42.275 31.571877Q42.275 33.571877 41.68125 34.728127Q41.0875 35.86875 39.93125 36.509377Q38.790627 37.134377 37.43125 37.134377Q35.24375 37.134377 33.9 35.74375Q32.571877 34.3375 32.571877 31.712502ZM34.36875 31.712502Q34.36875 33.7125 35.228127 34.696877Q36.103127 35.68125 37.43125 35.68125Q38.74375 35.68125 39.603127 34.696877Q40.478127 33.696877 40.478127 31.650002Q40.478127 29.728127 39.603127 28.743752Q38.728127 27.743752 37.43125 27.743752Q36.103127 27.743752 35.228127 28.743752Q34.36875 29.728127 34.36875 31.712502ZM44.2125 36.9L44.2125 26.525002L45.80625 26.525002L45.80625 28.009377Q46.946877 26.290627 49.103127 26.290627Q50.040627 26.290627 50.821877 26.634377Q51.61875 26.962502 52.009377 27.509377Q52.4 28.056252 52.55625 28.806252Q52.65 29.306252 52.65 30.525002L52.65 36.9L50.884377 36.9L50.884377 30.587502Q50.884377 29.509377 50.68125 28.978127Q50.478127 28.446877 49.946877 28.134377Q49.43125 27.821877 48.728127 27.821877Q47.603127 27.821877 46.790627 28.540627Q45.978127 29.243752 45.978127 31.228127L45.978127 36.9L44.2125 36.9ZM60.99375 35.61875Q60.009377 36.446877 59.103127 36.790627Q58.196877 37.134377 57.165627 37.134377Q55.4625 37.134377 54.540627 36.30625Q53.61875 35.4625 53.61875 34.165627Q53.61875 33.4 53.9625 32.775Q54.321877 32.15 54.884377 31.775002Q55.446877 31.384377 56.15 31.181252Q56.665627 31.056252 57.7125 30.915627Q59.8375 30.665627 60.8375 30.321877Q60.853127 29.962502 60.853127 29.853127Q60.853127 28.790627 60.353127 28.337502Q59.68125 27.743752 58.353127 27.743752Q57.103127 27.743752 56.509377 28.181252Q55.93125 28.618752 55.65 29.728127L53.93125 29.493752Q54.165627 28.384377 54.696877 27.712502Q55.228127 27.025002 56.24375 26.665627Q57.259377 26.290627 58.603127 26.290627Q59.93125 26.290627 60.759377 26.603127Q61.5875 26.915627 61.978127 27.400002Q62.36875 27.868752 62.525 28.587502Q62.61875 29.040627 62.61875 30.212502L62.61875 32.55625Q62.61875 35.009377 62.728127 35.665627Q62.8375 36.30625 63.18125 36.9L61.3375 36.9Q61.071877 36.353127 60.99375 35.61875ZM60.8375 31.696877Q59.884377 32.0875 57.9625 32.353127Q56.884377 32.509377 56.43125 32.7125Q55.99375 32.9 55.74375 33.275Q55.49375 33.65 55.49375 34.11875Q55.49375 34.821877 56.025 35.290627Q56.55625 35.759377 57.5875 35.759377Q58.603127 35.759377 59.384377 35.321877Q60.18125 34.86875 60.55625 34.103127Q60.8375 33.49375 60.8375 32.3375L60.8375 31.696877ZM69.05625 35.321877L69.30625 36.884377Q68.57188 37.040627 67.97813 37.040627Q67.025 37.040627 66.49375 36.74375Q65.97813 36.43125 65.75938 35.946877Q65.54063 35.446877 65.54063 33.86875L65.54063 27.900002L64.25938 27.900002L64.25938 26.525002L65.54063 26.525002L65.54063 23.962502L67.29063 22.900002L67.29063 26.525002L69.05625 26.525002L69.05625 27.900002L67.29063 27.900002L67.29063 33.9625Q67.29063 34.7125 67.38438 34.93125Q67.47813 35.134377 67.68125 35.275Q67.9 35.4 68.29063 35.4Q68.57188 35.4 69.05625 35.321877ZM71.22813 24.603127L71.22813 22.587502L72.99375 22.587502L72.99375 24.603127L71.22813 24.603127ZM71.22813 36.9L71.22813 26.525002L72.99375 26.525002L72.99375 36.9L71.22813 36.9ZM74.57188 31.712502Q74.57188 28.837502 76.16563 27.446877Q77.50938 26.290627 79.43125 26.290627Q81.57188 26.290627 82.91563 27.696877Q84.275 29.103127 84.275 31.571877Q84.275 33.571877 83.68125 34.728127Q83.0875 35.86875 81.93125 36.509377Q80.79063 37.134377 79.43125 37.134377Q77.24375 37.134377 75.9 35.74375Q74.57188 34.3375 74.57188 31.712502ZM76.36875 31.712502Q76.36875 33.7125 77.22813 34.696877Q78.10313 35.68125 79.43125 35.68125Q80.74375 35.68125 81.60313 34.696877Q82.47813 33.696877 82.47813 31.650002Q82.47813 29.728127 81.60313 28.743752Q80.72813 27.743752 79.43125 27.743752Q78.10313 27.743752 77.22813 28.743752Q76.36875 29.728127 76.36875 31.712502ZM86.2125 36.9L86.2125 26.525002L87.80625 26.525002L87.80625 28.009377Q88.94688 26.290627 91.10313 26.290627Q92.04063 26.290627 92.82188 26.634377Q93.61875 26.962502 94.00938 27.509377Q94.4 28.056252 94.55625 28.806252Q94.65 29.306252 94.65 30.525002L94.65 36.9L92.88438 36.9L92.88438 30.587502Q92.88438 29.509377 92.68125 28.978127Q92.47813 28.446877 91.94688 28.134377Q91.43125 27.821877 90.72813 27.821877Q89.60313 27.821877 88.79063 28.540627Q87.97813 29.243752 87.97813 31.228127L87.97813 36.9L86.2125 36.9ZM95.50938 33.80625L97.25938 33.525Q97.4 34.571877 98.07188 35.134377Q98.74375 35.68125 99.94688 35.68125Q101.15 35.68125 101.72813 35.196877Q102.32188 34.696877 102.32188 34.040627Q102.32188 33.446877 101.80625 33.103127Q101.44688 32.86875 100.00938 32.509377Q98.07188 32.009377 97.32188 31.665627Q96.5875 31.306252 96.19688 30.681252Q95.80625 30.040627 95.80625 29.275002Q95.80625 28.587502 96.11875 27.993752Q96.44688 27.400002 96.99375 27.009377Q97.4 26.712502 98.10313 26.509377Q98.82188 26.290627 99.63438 26.290627Q100.85313 26.290627 101.775 26.650002Q102.69688 26.993752 103.13438 27.603127Q103.57188 28.196877 103.74375 29.196877L102.025 29.431252Q101.9 28.634377 101.3375 28.196877Q100.775 27.743752 99.75938 27.743752Q98.54063 27.743752 98.025 28.150002Q97.50938 28.540627 97.50938 29.071877Q97.50938 29.415627 97.72813 29.696877Q97.93125 29.978127 98.4 30.165627Q98.66563 30.259377 99.94688 30.603127Q101.82188 31.103127 102.55625 31.431252Q103.29063 31.743752 103.7125 32.353127Q104.13438 32.946877 104.13438 33.853127Q104.13438 34.728127 103.61875 35.509377Q103.10313 36.290627 102.13438 36.7125Q101.16563 37.134377 99.94688 37.134377Q97.93125 37.134377 96.86875 36.290627Q95.80625 35.446877 95.50938 33.80625ZM113.8375 36.9L112.2125 36.9L112.2125 22.587502L113.9625 22.587502L113.9625 27.696877Q115.0875 26.290627 116.80625 26.290627Q117.75938 26.290627 118.61875 26.681252Q119.47813 27.071877 120.025 27.775002Q120.57188 28.462502 120.88438 29.446877Q121.19688 30.431252 121.19688 31.556252Q121.19688 34.228127 119.88438 35.68125Q118.57188 37.134377 116.72813 37.134377Q114.88438 37.134377 113.8375 35.603127L113.8375 36.9ZM113.82188 31.634377Q113.82188 33.49375 114.32188 34.3375Q115.16563 35.68125 116.57188 35.68125Q117.72813 35.68125 118.55625 34.68125Q119.4 33.68125 119.4 31.696877Q119.4 29.665627 118.5875 28.712502Q117.79063 27.743752 116.65 27.743752Q115.49375 27.743752 114.65 28.743752Q113.82188 29.743752 113.82188 31.634377ZM123.13438 40.9L122.94688 39.24375Q123.525 39.4 123.94688 39.4Q124.54063 39.4 124.88438 39.196877Q125.24375 39.009377 125.4625 38.665627Q125.63438 38.4 126.00938 37.353127Q126.05625 37.196877 126.16563 36.915627L122.22813 26.525002L124.11875 26.525002L126.275 32.540627Q126.69688 33.68125 127.025 34.93125Q127.3375 33.728127 127.74375 32.571877L129.9625 26.525002L131.72812 26.525002L127.775 37.071877Q127.15 38.790627 126.79063 39.43125Q126.32188 40.30625 125.7125 40.696877Q125.11875 41.103127 124.275 41.103127Q123.75938 41.103127 123.13438 40.9ZM149.66562 31.884377L151.55624 32.353127Q150.9625 34.696877 149.41562 35.93125Q147.86874 37.15 145.61874 37.15Q143.30624 37.15 141.85312 36.2125Q140.41562 35.259377 139.65 33.478127Q138.9 31.681252 138.9 29.634377Q138.9 27.400002 139.74374 25.743752Q140.60312 24.071877 142.18124 23.212502Q143.75937 22.337502 145.65 22.337502Q147.80624 22.337502 149.25937 23.431252Q150.72812 24.525002 151.30624 26.509377L149.44687 26.946877Q148.94687 25.384377 147.99374 24.681252Q147.05624 23.962502 145.61874 23.962502Q143.9625 23.962502 142.85312 24.759377Q141.74374 25.540627 141.29062 26.884377Q140.85312 28.212502 140.85312 29.618752Q140.85312 31.446877 141.38437 32.821877Q141.91562 34.18125 143.04062 34.853127Q144.16562 35.525 145.4625 35.525Q147.05624 35.525 148.16562 34.603127Q149.275 33.68125 149.66562 31.884377ZM159.99374 35.61875Q159.00937 36.446877 158.10312 36.790627Q157.19687 37.134377 156.16562 37.134377Q154.4625 37.134377 153.54062 36.30625Q152.61874 35.4625 152.61874 34.165627Q152.61874 33.4 152.9625 32.775Q153.32187 32.15 153.88437 31.775002Q154.44687 31.384377 155.15 31.181252Q155.66562 31.056252 156.7125 30.915627Q158.8375 30.665627 159.8375 30.321877Q159.85312 29.962502 159.85312 29.853127Q159.85312 28.790627 159.35312 28.337502Q158.68124 27.743752 157.35312 27.743752Q156.10312 27.743752 155.50937 28.181252Q154.93124 28.618752 154.65 29.728127L152.93124 29.493752Q153.16562 28.384377 153.69687 27.712502Q154.22812 27.025002 155.24374 26.665627Q156.25937 26.290627 157.60312 26.290627Q158.93124 26.290627 159.75937 26.603127Q160.5875 26.915627 160.97812 27.400002Q161.36874 27.868752 161.525 28.587502Q161.61874 29.040627 161.61874 30.212502L161.61874 32.55625Q161.61874 35.009377 161.72812 35.665627Q161.8375 36.30625 162.18124 36.9L160.3375 36.9Q160.07187 36.353127 159.99374 35.61875ZM159.8375 31.696877Q158.88437 32.0875 156.9625 32.353127Q155.88437 32.509377 155.43124 32.7125Q154.99374 32.9 154.74374 33.275Q154.49374 33.65 154.49374 34.11875Q154.49374 34.821877 155.025 35.290627Q155.55624 35.759377 156.5875 35.759377Q157.60312 35.759377 158.38437 35.321877Q159.18124 34.86875 159.55624 34.103127Q159.8375 33.49375 159.8375 32.3375L159.8375 31.696877ZM171.00937 36.9L171.00937 35.36875Q169.80624 37.134377 167.72812 37.134377Q166.80624 37.134377 166.00937 36.790627Q165.2125 36.43125 164.82187 35.9Q164.44687 35.36875 164.29062 34.5875Q164.18124 34.071877 164.18124 32.946877L164.18124 26.525002L165.93124 26.525002L165.93124 32.275Q165.93124 33.65 166.04062 34.134377Q166.2125 34.821877 166.74374 35.228127Q167.29062 35.61875 168.07187 35.61875Q168.86874 35.61875 169.55624 35.2125Q170.25937 34.80625 170.54062 34.11875Q170.8375 33.415627 170.8375 32.0875L170.8375 26.525002L172.5875 26.525002L172.5875 36.9L171.00937 36.9ZM173.50937 33.80625L175.25937 33.525Q175.4 34.571877 176.07187 35.134377Q176.74374 35.68125 177.94687 35.68125Q179.15 35.68125 179.72812 35.196877Q180.32187 34.696877 180.32187 34.040627Q180.32187 33.446877 179.80624 33.103127Q179.44687 32.86875 178.00937 32.509377Q176.07187 32.009377 175.32187 31.665627Q174.5875 31.306252 174.19687 30.681252Q173.80624 30.040627 173.80624 29.275002Q173.80624 28.587502 174.11874 27.993752Q174.44687 27.400002 174.99374 27.009377Q175.4 26.712502 176.10312 26.509377Q176.82187 26.290627 177.63437 26.290627Q178.85312 26.290627 179.775 26.650002Q180.69687 26.993752 181.13437 27.603127Q181.57187 28.196877 181.74374 29.196877L180.025 29.431252Q179.9 28.634377 179.3375 28.196877Q178.775 27.743752 177.75937 27.743752Q176.54062 27.743752 176.025 28.150002Q175.50937 28.540627 175.50937 29.071877Q175.50937 29.415627 175.72812 29.696877Q175.93124 29.978127 176.4 30.165627Q176.66562 30.259377 177.94687 30.603127Q179.82187 31.103127 180.55624 31.431252Q181.29062 31.743752 181.7125 32.353127Q182.13437 32.946877 182.13437 33.853127Q182.13437 34.728127 181.61874 35.509377Q181.10312 36.290627 180.13437 36.7125Q179.16562 37.134377 177.94687 37.134377Q175.93124 37.134377 174.86874 36.290627Q173.80624 35.446877 173.50937 33.80625ZM191.32187 33.55625L193.13437 33.790627Q192.7125 35.36875 191.54062 36.259377Q190.38437 37.134377 188.57187 37.134377Q186.30624 37.134377 184.9625 35.74375Q183.63437 34.3375 183.63437 31.806252Q183.63437 29.181252 184.97812 27.743752Q186.32187 26.290627 188.47812 26.290627Q190.55624 26.290627 191.86874 27.712502Q193.19687 29.118752 193.19687 31.696877Q193.19687 31.853127 193.18124 32.165627L185.44687 32.165627Q185.54062 33.86875 186.41562 34.775Q187.29062 35.68125 188.5875 35.68125Q189.55624 35.68125 190.22812 35.18125Q190.91562 34.665627 191.32187 33.55625ZM185.54062 30.712502L191.3375 30.712502Q191.22812 29.415627 190.68124 28.759377Q189.8375 27.743752 188.49374 27.743752Q187.29062 27.743752 186.4625 28.556252Q185.63437 29.353127 185.54062 30.712502ZM199.86874 36.9L205.36874 22.587502L207.41562 22.587502L213.275 36.9L211.11874 36.9L209.44687 32.55625L203.4625 32.55625L201.88437 36.9L199.86874 36.9ZM204.00937 31.025002L208.85312 31.025002L207.36874 27.056252Q206.68124 25.243752 206.35312 24.087502Q206.07187 25.462502 205.57187 26.821877L204.00937 31.025002ZM214.19687 36.9L214.19687 26.525002L215.775 26.525002L215.775 28.103127Q216.38437 26.993752 216.9 26.650002Q217.41562 26.290627 218.025 26.290627Q218.91562 26.290627 219.8375 26.853127L219.22812 28.493752Q218.5875 28.103127 217.94687 28.103127Q217.36874 28.103127 216.9 28.462502Q216.44687 28.806252 216.24374 29.415627Q215.9625 30.353127 215.9625 31.462502L215.9625 36.9L214.19687 36.9ZM228.32187 33.55625L230.13437 33.790627Q229.7125 35.36875 228.54062 36.259377Q227.38437 37.134377 225.57187 37.134377Q223.30624 37.134377 221.9625 35.74375Q220.63437 34.3375 220.63437 31.806252Q220.63437 29.181252 221.97812 27.743752Q223.32187 26.290627 225.47812 26.290627Q227.55624 26.290627 228.86874 27.712502Q230.19687 29.118752 230.19687 31.696877Q230.19687 31.853127 230.18124 32.165627L222.44687 32.165627Q222.54062 33.86875 223.41562 34.775Q224.29062 35.68125 225.5875 35.68125Q226.55624 35.68125 227.22812 35.18125Q227.91562 34.665627 228.32187 33.55625ZM222.54062 30.712502L228.3375 30.712502Q228.22812 29.415627 227.68124 28.759377Q226.8375 27.743752 225.49374 27.743752Q224.29062 27.743752 223.4625 28.556252Q222.63437 29.353127 222.54062 30.712502ZM238.99374 35.61875Q238.00937 36.446877 237.10312 36.790627Q236.19687 37.134377 235.16562 37.134377Q233.4625 37.134377 232.54062 36.30625Q231.61874 35.4625 231.61874 34.165627Q231.61874 33.4 231.9625 32.775Q232.32187 32.15 232.88437 31.775002Q233.44687 31.384377 234.15 31.181252Q234.66562 31.056252 235.7125 30.915627Q237.8375 30.665627 238.8375 30.321877Q238.85312 29.962502 238.85312 29.853127Q238.85312 28.790627 238.35312 28.337502Q237.68124 27.743752 236.35312 27.743752Q235.10312 27.743752 234.50937 28.181252Q233.93124 28.618752 233.65 29.728127L231.93124 29.493752Q232.16562 28.384377 232.69687 27.712502Q233.22812 27.025002 234.24374 26.665627Q235.25937 26.290627 236.60312 26.290627Q237.93124 26.290627 238.75937 26.603127Q239.5875 26.915627 239.97812 27.400002Q240.36874 27.868752 240.525 28.587502Q240.61874 29.040627 240.61874 30.212502L240.61874 32.55625Q240.61874 35.009377 240.72812 35.665627Q240.8375 36.30625 241.18124 36.9L239.3375 36.9Q239.07187 36.353127 238.99374 35.61875ZM238.8375 31.696877Q237.88437 32.0875 235.9625 32.353127Q234.88437 32.509377 234.43124 32.7125Q233.99374 32.9 233.74374 33.275Q233.49374 33.65 233.49374 34.11875Q233.49374 34.821877 234.025 35.290627Q234.55624 35.759377 235.5875 35.759377Q236.60312 35.759377 237.38437 35.321877Q238.18124 34.86875 238.55624 34.103127Q238.8375 33.49375 238.8375 32.3375L238.8375 31.696877Z" fill-rule="nonzero"/></svg>